<?xml version="1.0" encoding="UTF-8" standalone="no"?>
<svg
   xmlns:dc="http://purl.org/dc/elements/1.1/"
   xmlns:cc="http://creativecommons.org/ns#"
   xmlns:rdf="http://www.w3.org/1999/02/22-rdf-syntax-ns#"
   xmlns:svg="http://www.w3.org/2000/svg"
   xmlns="http://www.w3.org/2000/svg"
   viewBox="0 0 816 1056"
   height="1056"
   width="816"
   xml:space="preserve"
   id="svg2"
   version="1.1"><metadata
     id="metadata8"><rdf:RDF><cc:Work
         rdf:about=""><dc:format>image/svg+xml</dc:format><dc:type
           rdf:resource="http://purl.org/dc/dcmitype/StillImage" /></cc:Work></rdf:RDF></metadata><defs
     id="defs6"><clipPath
       id="clipPath18"
       clipPathUnits="userSpaceOnUse"><path
         id="path16"
         d="M 0,792 H 612 V 0 H 0 Z" /></clipPath><clipPath
       id="clipPath30"
       clipPathUnits="userSpaceOnUse"><path
         id="path28"
         d="M 0,792 H 612 V 0 H 0 Z" /></clipPath><clipPath
       id="clipPath130"
       clipPathUnits="userSpaceOnUse"><path
         id="path128"
         d="M 0,792 H 612 V 0 H 0 Z" /></clipPath><clipPath
       id="clipPath138"
       clipPathUnits="userSpaceOnUse"><path
         id="path136"
         d="M 136.921,712.459 H 384.807 V 15.7031 H 136.921 Z" /></clipPath><clipPath
       id="clipPath262"
       clipPathUnits="userSpaceOnUse"><path
         id="path260"
         d="M 0,792 H 612 V 0 H 0 Z" /></clipPath></defs><g
     transform="matrix(1.3333333,0,0,-1.3333333,0,1056)"
     id="g10"><g
       id="g12"><g
         clip-path="url(#clipPath18)"
         id="g14"><g
           transform="translate(188.3833,346.3545)"
           id="g20"><path
             id="path22"
             style="fill:#020101;fill-opacity:1;fill-rule:nonzero;stroke:none"
             d="m 0,0 c 1.076,3.06 3.007,5.854 5.327,8.595 1.174,-7.644 2.828,-14.697 4.945,-21.05 l -0.041,-0.147 c -1.218,-4.518 -2.36,-9.223 -3.406,-14.031 -3.471,0.343 -6.885,0.988 -9.976,1.88 -0.076,0.541 -0.115,1.071 -0.115,1.593 0,1.714 0.408,3.59 1.322,6.079 1.487,4.042 2.179,7.957 2.177,12.324 C 0.231,-3.323 0.155,-1.795 0,0 m 141.124,30.63 c 0,10.255 1.05,20.47 3.13,30.471 0.979,-1.161 1.964,-2.292 2.958,-3.39 -1.087,-2.89 -1.942,-6.27 -2.597,-10.249 -1.671,-10.232 -1.673,-22.908 -1.675,-33.096 v -2.622 c 0.002,-1.694 0.002,-3.375 -0.007,-5.024 -1.203,8.137 -1.809,16.133 -1.809,23.91 m 54.797,-322.292 c -3.531,3.887 -9.064,6.683 -14.559,8.929 0.75,0.799 1.144,1.874 1.078,2.979 -0.048,0.825 -0.091,1.662 -0.134,2.505 l -0.095,1.992 c -0.278,5.869 -0.567,11.94 -1.588,17.681 -0.149,0.832 -0.315,1.653 -0.497,2.459 -0.303,1.356 -1.291,2.458 -2.608,2.91 -0.768,0.263 -1.566,0.511 -2.384,0.75 -0.741,0.218 -1.483,0.421 -2.222,0.606 -0.367,7.167 -2.682,12.552 -6.903,16.053 0.048,4.538 0.116,9.151 0.188,13.796 0.127,8.298 0.257,16.877 0.259,25.234 -0.004,17.599 -0.595,30.511 -1.911,41.29 2.766,1.453 5.39,3.07 7.824,4.827 0.637,0.459 1.267,0.928 1.885,1.414 1.197,0.937 1.76,2.472 1.452,3.96 -0.147,0.711 -0.288,1.425 -0.418,2.14 -1.874,10.164 -2.355,20.891 -2.823,31.266 -0.448,9.968 -0.909,20.25 -2.61,30.05 2.117,1.925 4.283,4.194 6.467,6.779 4.182,4.986 8.3,11.082 11.296,16.726 0.7,1.319 1.317,2.569 1.832,3.716 0.291,0.642 0.405,1.354 0.332,2.057 -0.115,1.084 -0.243,2.162 -0.397,3.223 -0.487,3.396 -1.142,6.677 -1.776,9.853 -1.177,5.898 -2.289,11.47 -2.278,17.312 0,2.708 0.232,5.279 0.713,7.861 1.349,7.257 3.65,15.556 6.085,24.342 3.939,14.213 8.011,28.91 9.11,42.534 0.179,2.174 0.272,4.298 0.283,6.307 0,0.444 -0.071,0.886 -0.214,1.306 -0.711,2.087 -1.518,4.241 -2.394,6.403 -3.001,7.372 -6.642,14.542 -10.163,21.476 -1.088,2.141 -2.153,4.239 -3.17,6.288 -2.161,4.344 -4.694,11.016 -7.625,18.742 -3.74,9.849 -7.976,21.011 -13.018,31.602 -6.947,14.501 -17.696,33.296 -33.447,37.15 10.823,11.688 18.43,23.723 22.149,35.032 17.94,6.617 29.004,29.69 29.061,48.196 -0.005,8.823 -2.445,16.501 -7.058,22.203 -0.623,0.772 -1.287,1.507 -1.985,2.199 1.592,8.79 2.401,17.972 2.401,27.333 0.002,23.982 -5.349,47.449 -15.063,66.076 -11.466,21.983 -28.878,37.206 -50.352,44.022 -14.545,4.605 -29.503,6.939 -44.493,6.939 -41.343,0 -78.214,-17.752 -101.148,-48.689 -0.429,-0.576 -0.854,-1.154 -1.272,-1.74 -2.891,-4.052 -5.557,-8.336 -7.928,-12.733 -0.623,-1.16 -1.238,-2.324 -1.83,-3.514 -0.723,-1.451 -1.457,-3.029 -2.244,-4.829 -6.023,-13.729 -9.119,-28.301 -9.464,-44.551 -0.021,-1.004 -0.036,-2.011 -0.036,-3.018 0,-1.153 0.023,-2.308 0.049,-3.468 0.22,-9.334 1.285,-19.097 3.255,-29.847 2.701,-14.76 4.014,-26.678 4.01,-36.442 0.004,-7.555 -0.776,-12.429 -1.466,-16.732 -0.505,-3.147 -0.981,-6.12 -0.992,-9.426 -0.002,-4.407 0.869,-8.798 2.826,-14.243 8.608,-23.945 29.796,-44.432 57.11,-55.443 C 4.749,143.877 3.775,136.613 3.175,130.668 2.725,126.11 2.447,121.56 2.177,117.16 1.865,112.058 1.569,107.238 1.05,103.418 0.776,101.396 0.509,99.353 0.239,97.298 -1.515,83.881 -3.331,70.016 -7.413,57.697 -17.232,47.86 -24.757,38.803 -29.539,26.98 c -1.282,-3.207 -2.337,-6.572 -3.356,-9.827 -2.011,-6.416 -3.911,-12.472 -7.295,-16.941 -0.509,-0.671 -1.076,-1.324 -1.686,-1.939 -0.743,-0.75 -1.164,-1.862 -1.162,-2.92 0.003,-0.893 0.02,-1.792 0.041,-2.693 0.229,-9.23 1.664,-16.452 4.374,-22.011 -0.065,-0.64 -0.097,-1.285 -0.095,-1.925 0.074,-11.602 10.259,-21.8 17.924,-28.47 5.653,-4.891 11.85,-9.366 16.83,-12.964 1.414,-1.022 2.774,-2.005 4.009,-2.914 -0.431,-6.875 -0.649,-13.794 -0.649,-20.596 0,-11.75 0.654,-23.337 1.94,-34.431 0.087,-0.746 0.18,-1.486 0.272,-2.228 l 0.058,-0.454 c 0.145,-1.16 0.79,-2.197 1.762,-2.842 0.767,-0.506 1.569,-1.002 2.386,-1.476 5.531,-3.199 12.5,-5.818 20.306,-7.635 0.211,-4.788 0.375,-9.8 0.548,-15.053 0.862,-26.098 1.828,-55.468 9.122,-79.772 -1.366,-0.395 -2.651,-0.945 -3.802,-1.632 -0.147,-0.086 -0.289,-0.179 -0.479,-0.309 -1.073,-0.7 -2.002,-1.526 -2.757,-2.455 -0.681,-0.834 -0.996,-1.91 -0.875,-2.981 0.248,-2.164 0.66,-4.637 1.222,-7.344 0.595,-2.869 1.333,-5.855 2.134,-8.664 -3.929,-2.089 -9.344,-4.276 -15.011,-6.566 -3.083,-1.247 -6.271,-2.536 -9.412,-3.884 -8.232,-3.566 -13.788,-6.629 -18.006,-9.932 -6.163,-4.813 -9.291,-10.254 -9.3,-16.178 0,-1.912 0.341,-3.88 1.011,-5.844 0.246,-0.72 0.565,-1.496 0.981,-2.371 0.664,-1.401 2.076,-2.288 3.615,-2.288 0.067,0 0.136,0 0.202,0.005 0.656,0.033 1.322,0.052 2.085,0.054 4.133,0 8.771,-0.548 13.68,-1.13 5.62,-0.664 11.431,-1.352 17.413,-1.357 6.317,0 11.824,0.803 16.784,2.457 3.184,-0.8 6.761,-1.203 10.662,-1.207 10.324,0.016 21.507,2.839 29.187,7.363 1.242,0.733 2.387,1.503 3.419,2.303 0.052,0.036 0.139,0.101 0.182,0.135 1.397,1.111 2.054,2.833 1.843,4.516 0.226,1.376 0.343,2.839 0.343,4.372 -0.009,3.58 -0.576,7.069 -1.121,10.44 -0.08,0.485 -0.158,0.964 -0.233,1.44 0.946,0.795 1.763,1.707 2.444,2.729 2.08,3.102 3.053,7.034 3.063,12.384 0,3.121 -0.336,6.294 -0.666,8.987 -0.108,0.878 -0.215,1.746 -0.327,2.595 -0.164,1.24 -0.895,2.333 -1.979,2.952 -0.58,0.332 -1.177,0.644 -1.783,0.931 0.035,2.962 0.052,6.128 0.052,9.606 0,4.751 -0.03,9.566 -0.061,14.421 -0.028,4.919 -0.058,9.881 -0.058,14.859 -0.002,15.652 0.287,33.917 2.408,51.182 8.884,-2.141 18.353,-3.48 27.782,-3.924 4.266,-23.027 8.823,-76.179 9.69,-86.563 -2.832,-3.683 -4.327,-8.561 -4.327,-14.179 0.014,-6.971 2.322,-14.678 6.239,-20.986 -1.347,-5.083 -2.082,-10.793 -2.091,-16.294 0,-1.917 0.105,-3.865 0.314,-5.782 0.136,-1.286 0.302,-2.425 0.509,-3.478 0.164,-0.852 0.604,-1.629 1.248,-2.208 1.048,-0.947 1.964,-1.695 2.896,-2.365 0.555,-0.396 1.103,-0.755 1.653,-1.078 0.179,-2.539 0.552,-4.93 1.114,-7.138 0.22,-0.848 0.479,-1.7 0.77,-2.532 0.451,-1.287 1.528,-2.257 2.858,-2.569 l 0.55,-0.13 1.783,-0.42 2.361,-0.562 c 12.181,-2.911 24.776,-5.92 38.027,-5.922 h 0.019 c 8.072,0 15.56,1.116 22.891,3.414 0.719,0.224 1.44,0.459 2.162,0.712 1.533,0.532 2.59,1.937 2.68,3.556 0.037,0.695 0.082,1.41 0.13,2.143 l 0.041,0.649 c 0.221,3.468 0.475,7.4 0.478,11.341 -0.017,7.401 -0.767,16.719 -6.506,23.175" /></g></g></g><g
       id="g24"><g
         clip-path="url(#clipPath30)"
         id="g26"><g
           transform="translate(142.9009,698.019)"
           id="g32"><path
             id="path34"
             style="fill:#141413;fill-opacity:1;fill-rule:nonzero;stroke:none"
             d="m 0,0 c 0.001,0.879 0.023,1.76 0.064,2.642 -3.476,-9.708 -5.362,-19.572 -6.044,-29.537 2.011,4.728 4.531,9.187 7.844,13.216 C 0.597,-9.273 0,-4.664 0,0" /></g><g
           transform="translate(213.0786,715.6909)"
           id="g36"><path
             id="path38"
             style="fill:#141413;fill-opacity:1;fill-rule:nonzero;stroke:none"
             d="m 0,0 c 20.882,-0.002 43.83,2.678 62.751,6.854 10.23,2.236 19.302,4.971 26.195,7.901 0.651,0.277 1.286,0.556 1.897,0.835 0.42,-0.539 0.786,-1.105 1.081,-1.705 0.772,-1.567 1.136,-3.317 1.123,-5.153 -0.037,-7.398 -5.252,-16.49 -11.16,-24.674 -2.047,-2.823 -4.183,-5.519 -6.235,-7.977 20.444,-15.802 26.052,-41.941 33.763,-64.976 4.971,7.529 13.893,13.001 22.762,13.045 3.669,0.008 7.337,-0.975 10.657,-3.147 1.653,8.665 2.53,17.961 2.528,27.48 C 145.36,-8.268 127.433,39.198 84.137,52.86 70.072,57.313 55.65,59.519 41.486,59.519 3.559,59.51 -32.482,43.713 -55.143,12.885 -51.312,8.94 -44.995,5.914 -36.943,3.831 -26.724,1.173 -13.811,-0.002 0,0" /></g><g
           transform="translate(255.6973,640.6152)"
           id="g40"><path
             id="path42"
             style="fill:#141413;fill-opacity:1;fill-rule:nonzero;stroke:none"
             d="m 0,0 c 2.957,0.004 5.782,0.515 8.444,1.619 -8.604,2.726 -14.031,9.291 -18.555,16.349 -4.576,7.128 -8.461,14.771 -13.97,19.993 -3.48,-0.438 -6.886,-2.489 -9.513,-5.404 -2.984,-3.294 -4.914,-7.649 -4.906,-11.695 0.004,-0.981 0.122,-1.94 0.352,-2.87 C -27.844,9.519 -12.839,-0.049 0,0" /></g><g
           transform="translate(164.4253,673.6919)"
           id="g44"><path
             id="path46"
             style="fill:#141413;fill-opacity:1;fill-rule:nonzero;stroke:none"
             d="m 0,0 c -6.143,-8.689 -13.545,-17.085 -21.785,-24.087 3.072,-1.642 5.941,-2.36 8.533,-2.36 4.497,0.004 8.256,2.1 10.958,5.393 2.697,3.288 4.277,7.775 4.275,12.397 C 1.98,-5.736 1.354,-2.771 0,0" /></g><g
           transform="translate(227.999,612)"
           id="g48"><path
             id="path50"
             style="fill:#2b388f;fill-opacity:1;fill-rule:nonzero;stroke:none"
             d="M 0,0 C 2.11,0 4.071,1.133 5.566,3.115 7.048,5.09 8.002,7.89 7.999,11 8.001,12.977 7.614,14.825 6.953,16.419 6.622,16.435 6.297,16.443 5.98,16.443 -0.005,16.407 -3.36,13.778 -5.529,9.6 -6.132,8.418 -6.609,7.098 -6.999,5.694 -6.612,4.734 -6.126,3.865 -5.563,3.115 -4.071,1.133 -2.11,0 0,0" /></g><g
           transform="translate(238.3184,628.0161)"
           id="g52"><path
             id="path54"
             style="fill:#ffffff;fill-opacity:1;fill-rule:nonzero;stroke:none"
             d="m 0,0 c -0.395,0.073 -0.782,0.136 -1.16,0.19 0.538,-1.607 0.84,-3.368 0.842,-5.206 -0.01,-6.982 -4.236,-12.935 -10.001,-13 -3.177,0.036 -5.882,1.867 -7.676,4.668 -0.488,-2.817 -0.685,-5.87 -0.682,-8.951 0,-1.566 0.051,-3.135 0.13,-4.684 5.068,1.091 10.658,1.656 16.295,1.657 7.627,-0.004 15.319,-1.033 21.884,-3.235 C 19.376,-16.269 11.635,-2.048 0,0" /></g><g
           transform="translate(299.0767,515.5273)"
           id="g56"><path
             id="path58"
             style="fill:#d3a07d;fill-opacity:1;fill-rule:nonzero;stroke:none"
             d="m 0,0 c -2.054,-9.497 -4.392,-25.287 -4.383,-39.96 -0.004,-9.53 0.987,-18.618 3.583,-25.185 2.642,-6.593 6.598,-10.495 12.856,-10.518 1.312,0 2.752,0.202 4.299,0.578 -5.347,9.831 -10.05,19.938 -14.347,29.654 -0.223,0.504 0.006,1.095 0.51,1.318 0.506,0.223 1.097,-0.004 1.32,-0.51 4.338,-9.822 9.089,-20.017 14.484,-29.894 0.324,-0.593 0.642,-1.189 0.97,-1.78 3.521,-6.324 7.327,-12.487 11.465,-18.324 0.489,-0.69 0.98,-1.38 1.479,-2.061 3.118,-4.251 6.42,-8.313 9.947,-12.096 1.713,2.897 3.944,5.062 6.89,6.189 v -0.002 c 0.517,0.195 1.094,-0.069 1.287,-0.587 0.192,-0.516 -0.071,-1.093 -0.587,-1.285 -2.534,-0.919 -4.547,-2.948 -6.131,-5.815 -0.331,-0.599 -0.646,-1.23 -0.939,-1.901 -1.275,-2.91 -2.21,-6.468 -2.862,-10.5 -1.532,-9.363 -1.595,-21.035 -1.595,-32.128 v -2.618 c -0.01,-9.933 -0.032,-19.16 -1.214,-25.816 -0.146,-0.818 -0.309,-1.597 -0.493,-2.334 -0.779,-0.307 -1.557,-0.609 -2.329,-0.913 -0.289,-0.114 -0.575,-0.23 -0.861,-0.345 -0.628,-0.253 -1.249,-0.511 -1.857,-0.775 -3.639,-1.583 -6.84,-3.457 -8.632,-6.507 0.567,-3.119 0.849,-6.214 0.849,-9.278 0,-4.176 -0.523,-8.292 -1.502,-12.336 0.139,0.051 0.274,0.109 0.414,0.156 0.528,0.167 1.088,-0.125 1.255,-0.654 0.166,-0.525 -0.127,-1.085 -0.652,-1.252 -0.581,-0.173 -1.139,-0.421 -1.674,-0.715 -0.949,-0.525 -1.816,-1.213 -2.568,-1.986 -0.084,-0.087 -0.165,-0.175 -0.247,-0.264 -0.562,-0.612 -1.051,-1.263 -1.455,-1.921 -0.828,-1.351 -1.3,-2.714 -1.271,-3.748 0.001,-0.309 0.042,-0.566 0.107,-0.787 0.08,-0.274 0.199,-0.492 0.353,-0.653 0.27,-0.279 0.713,-0.503 1.552,-0.524 0.03,-0.001 0.052,-0.007 0.084,-0.007 0.731,0 1.723,0.18 2.967,0.623 2.279,0.819 3.527,2.663 4.558,4.925 1.034,2.244 1.713,4.777 3.115,6.655 0.923,1.256 2.367,2.202 4.24,2.181 0.468,-0.002 0.961,-0.06 1.477,-0.164 0.849,-0.171 1.769,-0.481 2.79,-0.948 0.415,-0.842 0.808,-1.746 1.167,-2.7 0.885,-2.346 1.563,-4.98 1.869,-7.652 0.083,-0.736 0.139,-1.475 0.162,-2.212 -0.69,-0.455 -1.355,-1.017 -2.011,-1.657 -1.617,-1.575 -3.178,-3.609 -4.897,-5.624 -2.4,-2.793 -5.268,-5.55 -9.316,-6.529 0.51,-1.351 1.238,-2.496 2.171,-3.482 0.177,-0.098 0.335,-0.233 0.429,-0.431 0.006,-0.011 0.004,-0.025 0.009,-0.037 1.17,-1.089 2.642,-1.953 4.454,-2.616 0.125,0.059 0.257,0.125 0.384,0.186 0.587,0.279 1.192,0.579 1.811,0.901 5.962,3.101 13.164,8.091 16.611,13.199 0.311,0.457 0.933,0.576 1.389,0.268 0.457,-0.312 0.576,-0.934 0.266,-1.39 -3.776,-5.524 -10.984,-10.504 -17.083,-13.709 2.296,-2.815 4.788,-3.894 7.443,-3.91 3.229,-0.036 6.878,1.73 10.514,4.545 0.577,0.447 1.152,0.925 1.726,1.421 2.296,1.985 4.561,4.338 6.681,6.882 5.231,6.223 9.67,13.475 12.041,18.568 -1.17,10.255 -4.418,19.681 -4.437,30.463 0,2.884 0.237,5.857 0.819,8.96 3.943,21.034 15.189,49.624 15.368,71.798 -3.865,11.206 -10.18,22.78 -15.307,33.087 C 64.35,-66.073 57.75,-44.774 48.83,-26.057 39.939,-7.287 28.661,8.509 15.109,8.393 13.023,8.393 10.85,8.026 8.589,7.247 5.79,4.71 2.914,2.286 0,0" /></g><g
           transform="translate(297.0088,303.4922)"
           id="g60"><path
             id="path62"
             style="fill:#cccccc;fill-opacity:1;fill-rule:nonzero;stroke:none"
             d="m 0,0 c -0.054,-1.04 -0.088,-2.085 -0.088,-3.133 -0.001,-3.644 0.33,-7.32 0.981,-10.946 0.005,-0.003 0.012,-0.002 0.019,-0.005 3.273,-1.519 6.919,-2.477 10.321,-2.474 1.81,0.001 3.537,0.278 5.127,0.856 -0.191,0.513 -0.284,1.065 -0.283,1.624 0.024,1.201 0.379,2.52 1.013,3.816 C 10.795,-9.594 4.171,-5.596 0,0" /></g><g
           transform="translate(164,614.5005)"
           id="g64"><path
             id="path66"
             style="fill:#2b388f;fill-opacity:1;fill-rule:nonzero;stroke:none"
             d="M 0,0 C 1.695,0 3.282,0.91 4.503,2.53 5.715,4.143 6.501,6.44 6.499,9 6.5,9.29 6.487,9.575 6.467,9.857 5.226,11.34 3.571,12.174 1.143,12.198 c -0.577,0 -1.198,-0.051 -1.87,-0.161 -2.561,-0.43 -4.4,-1.582 -5.765,-3.271 C -6.447,6.301 -5.679,4.093 -4.503,2.53 -3.282,0.91 -1.696,0 0,0" /></g><g
           transform="translate(323.3223,270.2754)"
           id="g68"><path
             id="path70"
             style="fill:#cccccc;fill-opacity:1;fill-rule:nonzero;stroke:none"
             d="m 0,0 c -0.869,1.1 -1.552,2.35 -2.04,3.74 -0.221,0.628 -0.401,1.285 -0.542,1.97 0.705,0.037 1.375,0.129 2.01,0.276 3.485,0.811 5.971,3.172 8.355,5.917 2.09,2.391 3.984,5.07 6.373,6.949 -0.26,3.535 -1.322,7.175 -2.629,10.046 -1.158,0.464 -2.08,0.656 -2.788,0.652 C 7.495,29.529 6.818,29.079 6.094,28.162 5.392,27.245 4.81,25.837 4.201,24.285 2.977,21.221 1.561,17.389 -2.501,15.907 -3.898,15.41 -5.095,15.17 -6.141,15.17 h -0.04 c -0.961,0 -1.814,0.235 -2.488,0.687 -2.007,-0.832 -4.188,-1.2 -6.399,-1.2 h -0.012 c -3.312,0.003 -6.718,0.806 -9.864,2.095 2.028,-9.219 6.171,-17.989 12.36,-24.959 C -8.615,-5.012 -4.451,-2.243 0,0" /></g><g
           transform="translate(240.9189,490.5176)"
           id="g72"><path
             id="path74"
             style="fill:#d3a07d;fill-opacity:1;fill-rule:nonzero;stroke:none"
             d="M 0,0 C 0,0.554 -0.036,1.112 -0.098,1.672 -1.133,1.64 -2.168,1.605 -3.207,1.605 c -2.016,0.001 -4.039,0.08 -6.064,0.203 -1.747,-3.968 -3.516,-8.904 -3.502,-13.107 0.08,-4.434 1.666,-7.83 7.475,-9.372 0.888,-0.224 1.735,-0.328 2.546,-0.328 3.238,0.002 6.037,1.666 8.627,4.475 2.575,2.802 4.848,6.71 6.9,10.885 1.549,3.133 2.956,6.398 4.31,9.473 C 12.134,2.706 7.05,2.027 1.903,1.756 1.963,1.17 2.001,0.584 2.001,0 c 0,-3.004 -0.818,-5.966 -2.592,-8.58 -0.194,-0.284 -0.508,-0.438 -0.828,-0.438 -0.194,0 -0.389,0.057 -0.561,0.173 -0.459,0.31 -0.578,0.933 -0.268,1.389 C -0.708,-5.187 -0.002,-2.645 0,0" /></g><g
           transform="translate(204.8311,334.3457)"
           id="g76"><path
             id="path78"
             style="fill:#fff100;fill-opacity:1;fill-rule:nonzero;stroke:none"
             d="m 0,0 c 0.035,-0.099 0.064,-0.186 0.098,-0.28 0.07,-0.204 0.142,-0.409 0.208,-0.599 13.844,-7.52 40.056,-11.717 65.595,-11.685 23.307,-0.034 46.172,3.482 58.668,10.525 -3.804,14.887 -5.894,29.762 -5.894,44.678 0,13.777 1.787,27.588 5.627,41.469 -4.638,6.404 -8.854,13.202 -12.719,20.176 -1.873,-0.498 -3.639,-0.765 -5.281,-0.767 h -0.051 c -7.224,0.001 -11.974,4.843 -14.667,11.785 -2.747,6.985 -3.716,16.249 -3.721,25.919 0.007,13.788 1.995,28.34 3.952,38.099 -9.024,-6.796 -18.289,-12.23 -26.595,-15.573 -3.115,-1.251 -6.322,-2.273 -9.585,-3.123 -0.654,-1.461 -1.322,-2.988 -2.006,-4.541 -2.835,-6.383 -6.006,-13.213 -10.194,-17.788 -2.781,-3.039 -6.12,-5.121 -10.094,-5.121 h -0.006 c -0.982,0 -1.994,0.125 -3.034,0.389 -6.616,1.596 -9.067,6.334 -8.987,11.31 0.014,4.469 1.685,9.302 3.388,13.25 -3.69,0.298 -7.383,0.791 -11.055,1.476 C 1.443,130.386 -7.28,88.494 -7.275,51.049 c 0,-5.716 0.207,-11.325 0.629,-16.772 0.071,-0.906 0.15,-1.804 0.233,-2.701 C -5.466,21.31 -3.712,11.677 -1.026,3.105 -0.697,2.056 -0.357,1.018 0,0" /></g><g
           transform="translate(262.6235,91.6631)"
           id="g80"><path
             id="path82"
             style="fill:#e44044;fill-opacity:1;fill-rule:nonzero;stroke:none"
             d="m 0,0 c -3.26,0.959 -6.96,1.417 -10.696,1.409 -5.296,0.006 -10.651,-0.912 -14.855,-2.455 -0.654,-0.239 -1.276,-0.496 -1.869,-0.765 -0.329,0.575 -0.644,1.165 -0.949,1.764 -0.552,1.088 -1.074,2.206 -1.582,3.315 -0.103,0.091 -0.194,0.199 -0.253,0.333 -0.332,0.752 -0.644,1.522 -0.959,2.291 -0.572,1.213 -1.15,2.375 -1.765,3.417 -0.115,0.002 -0.231,0.005 -0.345,0.005 -2.111,0.004 -4.324,-0.564 -5.922,-1.528 -0.416,-0.254 -0.785,-0.526 -1.104,-0.814 0.628,-4.701 2.087,-11.074 3.742,-16.411 0.213,-0.687 0.428,-1.357 0.646,-2.003 -0.529,-0.396 -1.101,-0.786 -1.708,-1.17 -4.471,-2.828 -10.944,-5.391 -17.863,-8.199 -9.474,-3.813 -19.722,-7.971 -26.261,-13.101 -4.373,-3.431 -6.996,-7.17 -6.992,-11.453 -0.001,-1.391 0.295,-2.88 0.906,-4.466 0.313,0.006 0.623,0.02 0.939,0.02 9.493,-0.008 20.416,-2.491 31.14,-2.482 4.631,0 9.207,0.459 13.616,1.75 0.995,0.291 1.982,0.628 2.959,1.009 0.998,-0.323 2.051,-0.595 3.159,-0.812 2.388,-0.467 4.992,-0.703 7.707,-0.7 10.273,-0.017 21.973,3.253 28.451,8.046 0.365,1.461 0.525,3.009 0.526,4.635 0.01,4.179 -0.993,8.712 -1.577,12.992 -0.093,0.683 -0.169,1.355 -0.235,2.021 0.721,0.248 1.355,0.561 1.908,0.936 0.819,0.554 1.478,1.231 2.018,2.018 1.497,2.196 2.049,5.417 2.043,9.034 10e-4,3.138 -0.398,6.54 -0.813,9.795 -0.645,0.325 -1.32,0.624 -2.026,0.894 C 1.344,-0.429 0.684,-0.201 0,0" /></g><g
           transform="translate(182.6924,316.0752)"
           id="g84"><path
             id="path86"
             style="fill:#cccccc;fill-opacity:1;fill-rule:nonzero;stroke:none"
             d="m 0,0 c -0.827,0.255 -1.642,0.534 -2.445,0.831 -2.342,0.866 -4.557,1.925 -6.564,3.188 0.249,-1.448 0.384,-2.923 0.391,-4.375 -0.003,-2.86 -0.515,-5.637 -1.736,-7.912 5.057,-6.454 12.527,-12.748 21.339,-14.324 0.543,-0.098 0.904,-0.618 0.805,-1.161 -0.086,-0.483 -0.51,-0.821 -0.985,-0.821 -0.058,0 -0.117,0.005 -0.176,0.015 -9.293,1.697 -16.9,8.026 -22.143,14.554 -1.037,-1.236 -2.411,-2.173 -4.069,-2.685 -0.644,-0.199 -1.331,-0.331 -2.06,-0.388 -0.344,0.644 -0.683,1.297 -1.018,1.955 -2.713,5.34 -5.076,11.131 -6.257,17.322 -0.868,-1.409 -1.437,-2.818 -1.763,-4.232 -0.223,-0.977 -0.343,-1.955 -0.345,-2.94 0,-0.054 0.008,-0.111 0.008,-0.166 0.045,-7.84 7.185,-16.335 15.841,-23.789 7.324,-6.34 15.591,-11.944 21.232,-16.15 0.995,13.023 2.758,25.972 5.254,38.517 C 10.451,-2.323 5.049,-1.553 0,0" /></g><g
           transform="translate(187.0859,524.5898)"
           id="g88"><path
             id="path90"
             style="fill:#d3a07d;fill-opacity:1;fill-rule:nonzero;stroke:none"
             d="m 0,0 h 0.002 c -0.504,0.228 -0.727,0.819 -0.5,1.323 0.228,0.504 0.821,0.726 1.325,0.498 3.862,-1.75 8.197,-2.583 12.678,-2.583 3.679,0 7.453,0.563 11.129,1.632 0.531,0.154 1.086,-0.15 1.24,-0.68 0.154,-0.531 -0.152,-1.086 -0.681,-1.24 C 21.346,-2.168 17.387,-2.762 13.505,-2.762 8.778,-2.762 4.158,-1.884 0,0 m -10.537,16.217 c 0.169,0.527 0.733,0.815 1.258,0.646 5.879,-1.902 12.03,-2.459 18.343,-2.459 8.595,-0.002 17.478,1.039 26.318,1.041 C 45.094,15.448 54.798,14.177 63.923,8.77 64.4,8.49 64.554,7.875 64.275,7.4 64.088,7.086 63.754,6.911 63.413,6.911 c -0.173,0 -0.349,0.045 -0.509,0.14 -8.696,5.15 -17.969,6.393 -27.522,6.395 -8.683,0.002 -17.564,-1.039 -26.318,-1.041 -6.428,0 -12.797,0.563 -18.958,2.555 -0.524,0.169 -0.814,0.732 -0.643,1.257 m -1.051,3.693 c -0.098,0 -0.198,0.015 -0.296,0.045 -0.527,0.165 -0.822,0.727 -0.657,1.255 1.111,3.558 4.12,5.872 7.957,7.248 3.853,1.387 8.637,1.923 13.727,1.927 12.444,-0.012 26.677,-3.22 33.174,-6.059 0.505,-0.222 0.735,-0.813 0.514,-1.318 -0.224,-0.505 -0.813,-0.735 -1.32,-0.513 -6.072,2.68 -20.289,5.9 -32.368,5.888 -4.946,0.004 -9.542,-0.538 -13.049,-1.807 -3.524,-1.28 -5.864,-3.201 -6.725,-5.963 -0.134,-0.429 -0.531,-0.703 -0.957,-0.703 m -8.569,20.678 c -1.98,2.665 -2.831,6.136 -2.835,9.644 0.004,3.883 1.045,7.838 2.951,10.909 1.893,3.053 4.769,5.293 8.353,5.295 2.42,0 5.037,-1.029 7.738,-3.252 v -0.002 c 0.426,-0.35 0.486,-0.98 0.136,-1.408 -0.353,-0.425 -0.982,-0.486 -1.408,-0.135 -2.458,2.021 -4.625,2.796 -6.466,2.796 -2.689,0.002 -4.963,-1.656 -6.654,-4.354 -1.677,-2.679 -2.653,-6.326 -2.649,-9.849 -0.002,-3.188 0.794,-6.252 2.438,-8.449 1.653,-2.19 4.081,-3.605 7.765,-3.621 1.814,0 3.934,0.361 6.38,1.195 0.523,0.178 1.09,-0.102 1.268,-0.624 0.178,-0.522 -0.101,-1.089 -0.624,-1.27 -2.61,-0.889 -4.945,-1.3 -7.024,-1.302 h -0.051 c -4.199,0 -7.355,1.769 -9.318,4.427 m -10.932,33.913 c -0.609,-0.318 -1.2,-0.657 -1.773,-1.022 -0.197,0.642 -0.386,1.315 -0.564,2.027 -0.821,3.275 -1.409,7.195 -1.413,11.107 0.004,3.935 0.589,7.848 2.219,11.033 0.304,0.599 0.663,1.161 1.05,1.7 0.657,0.913 1.424,1.74 2.327,2.428 1.398,1.067 3.095,1.827 5.107,2.147 0.767,0.126 1.497,0.188 2.193,0.188 1.815,0.015 3.366,-0.445 4.673,-1.22 1.017,-0.602 1.876,-1.401 2.579,-2.347 0.386,-0.52 0.739,-1.069 1.029,-1.665 1.53,-3.076 2.03,-7.026 2.036,-11.078 -0.002,-3.145 -0.318,-6.341 -0.75,-9.225 -0.103,-0.685 -0.211,-1.349 -0.325,-1.992 -0.633,0.196 -1.281,0.362 -1.942,0.495 -1.416,0.283 -2.889,0.429 -4.387,0.429 -4.112,0.005 -8.374,-1.076 -12.059,-3.005 m -15.013,49.131 c -0.508,0.291 -1.019,0.605 -1.533,0.943 -0.089,0.059 -0.154,0.137 -0.218,0.216 0.529,0.426 1.054,0.857 1.577,1.295 8.542,7.163 16.232,15.908 22.523,24.934 0.41,0.588 0.815,1.178 1.214,1.769 0.42,-0.605 0.805,-1.222 1.153,-1.852 1.841,-3.328 2.707,-6.951 2.706,-10.492 -0.016,-10.105 -6.886,-19.757 -17.233,-19.791 -3.17,0 -6.611,0.926 -10.189,2.978 m 88.715,32.009 c 0.857,0.216 1.73,0.355 2.615,0.41 0.739,-0.659 1.45,-1.351 2.131,-2.076 5.083,-5.412 8.686,-12.518 12.823,-18.898 4.903,-7.553 10.332,-14.032 19.566,-16.084 0.917,-0.203 1.879,-0.356 2.875,-0.469 -0.819,-0.615 -1.66,-1.163 -2.52,-1.643 -3.562,-1.989 -7.455,-2.856 -11.452,-2.856 h -0.04 c -12.32,0.045 -25.762,7.882 -35.946,15.702 -1.392,1.068 -2.722,2.136 -3.981,3.185 -0.305,1.001 -0.482,2.028 -0.545,3.065 -0.019,0.302 -0.03,0.606 -0.029,0.91 0.061,8.181 6.548,16.749 14.503,18.754 M 72.874,74.142 c 0,-0.713 -0.032,-1.416 -0.08,-2.114 -0.642,0.261 -1.299,0.51 -1.971,0.745 C 64.41,75.016 56.659,76.106 48.98,76.1 43.366,76.103 37.791,75.52 32.804,74.421 32.132,74.273 31.481,74.107 30.831,73.94 c -0.047,0.667 -0.087,1.345 -0.124,2.027 -0.092,1.697 -0.151,3.427 -0.151,5.16 0.005,4.102 0.328,8.2 1.269,11.886 0.323,1.262 0.72,2.473 1.204,3.618 0.183,0.434 0.364,0.871 0.573,1.285 2.333,4.678 6.61,7.935 13.179,7.936 0.038,0 0.074,0.003 0.112,0.003 0.732,-0.001 1.492,-0.04 2.281,-0.117 0.778,-0.076 1.584,-0.19 2.42,-0.343 13.307,-2.533 21.251,-18.084 21.282,-31.23 0,-0.008 -0.002,-0.016 -0.002,-0.023 m 71.642,11.579 c 0.616,0.914 1.26,1.803 1.931,2.654 0.017,0.021 0.034,0.044 0.05,0.065 4.52,5.629 10.017,9.782 14.875,9.842 3.675,0.052 6.639,-2.746 7.527,-8.196 v -0.002 c 0.096,-0.544 -0.267,-1.063 -0.811,-1.158 -0.544,-0.097 -1.064,0.266 -1.161,0.81 -0.966,5.01 -2.966,6.497 -5.555,6.548 -3.353,0.055 -8.187,-3.102 -12.254,-7.816 2.32,-0.231 4.425,-1.293 5.98,-2.981 1.773,-1.921 2.835,-4.639 2.835,-7.806 0,-0.272 -0.008,-0.545 -0.021,-0.82 -0.025,-0.535 -0.47,-0.951 -0.998,-0.951 -0.015,0 -0.032,0 -0.049,0.001 -0.552,0.027 -0.979,0.498 -0.95,1.047 0.011,0.248 0.017,0.488 0.017,0.723 -0.037,5.445 -3.499,8.814 -7.791,8.836 -0.204,0 -0.411,-0.01 -0.621,-0.026 -4.015,-5.278 -6.966,-11.897 -6.953,-17.594 0.002,-2.751 0.663,-5.266 2.166,-7.413 0.317,-0.453 0.206,-1.075 -0.246,-1.394 -0.175,-0.122 -0.374,-0.18 -0.572,-0.18 -0.315,0 -0.626,0.149 -0.82,0.426 -1.777,2.532 -2.529,5.494 -2.528,8.561 0.013,5.63 2.476,11.67 5.949,16.824 M 16.529,-24.689 c 4.478,-1.519 9.045,-2.75 13.655,-3.681 0.668,-0.135 1.335,-0.279 2.004,-0.401 3.694,-0.674 7.409,-1.152 11.119,-1.425 0.715,-0.053 1.429,-0.082 2.144,-0.119 1.728,-0.09 3.454,-0.152 5.175,-0.151 0.925,0 1.845,0.033 2.767,0.059 0.676,0.02 1.353,0.04 2.028,0.074 5.627,0.284 11.165,1.082 16.528,2.41 0.835,0.207 1.671,0.411 2.497,0.644 2.643,0.746 5.239,1.62 7.774,2.638 7.598,3.052 16.107,7.958 24.488,14.091 1.166,0.853 2.328,1.723 3.486,2.622 0.844,0.656 1.683,1.326 2.521,2.005 l 6.825,5.865 c 2.575,2.347 5.086,4.786 7.487,7.306 10.336,10.832 18.699,23.075 22.447,35.016 0.226,0.72 0.425,1.439 0.617,2.157 0.75,0.17 1.494,0.368 2.227,0.618 14.577,4.984 25.73,25.311 25.676,42.807 0.002,7.056 -1.785,13.577 -5.72,18.436 -0.698,0.857 -1.424,1.62 -2.173,2.306 -0.554,0.507 -1.12,0.969 -1.698,1.387 -3.161,2.285 -6.66,3.268 -10.233,3.275 -6.016,0.009 -12.248,-2.863 -16.94,-7.256 -1.986,-1.853 -3.684,-3.972 -4.989,-6.239 -0.467,-0.812 -0.885,-1.642 -1.244,-2.487 -0.314,0.887 -0.624,1.779 -0.93,2.675 -8.063,23.663 -13.438,50.108 -33.703,65.721 -0.526,0.404 -1.074,0.793 -1.619,1.183 0.422,0.494 0.851,1.001 1.283,1.518 2.053,2.455 4.191,5.153 6.232,7.968 5.844,8.017 10.817,17.044 10.78,23.5 -0.013,1.63 -0.3,3.07 -0.936,4.337 -7.122,-3.073 -16.401,-5.821 -26.929,-8.168 -19.077,-4.209 -42.129,-6.901 -63.182,-6.901 -13.927,0.002 -26.973,1.175 -37.446,3.894 -8.073,2.107 -14.654,5.122 -18.889,9.359 -3.321,-4.694 -6.342,-9.719 -9.015,-15.084 -0.719,-1.442 -1.383,-2.889 -2.023,-4.339 -0.518,-3.168 -0.806,-6.352 -0.804,-9.502 0,-4.051 0.462,-8.04 1.435,-11.865 0.196,-0.769 0.414,-1.531 0.651,-2.285 -0.516,-0.598 -1.015,-1.206 -1.494,-1.826 -3.986,-5.151 -6.735,-11.017 -8.85,-17.313 -0.016,-0.864 -0.03,-1.728 -0.03,-2.593 0,-4.74 0.254,-9.5 0.695,-14.268 0.072,-0.78 0.143,-1.559 0.225,-2.339 0.552,-5.202 1.327,-10.415 2.282,-15.628 3.141,-17.141 4.111,-28.893 4.111,-37.52 -0.005,-13.779 -2.479,-19.58 -2.456,-26.162 0,-3.348 0.598,-6.992 2.469,-12.213 8.931,-24.989 31.647,-44.057 57.747,-53.44 0.64,-0.23 1.284,-0.448 1.928,-0.666" /></g><g
           transform="translate(156.9683,330.5381)"
           id="g92"><path
             id="path94"
             style="fill:#d3a07d;fill-opacity:1;fill-rule:nonzero;stroke:none"
             d="M 0,0 C 0,2.993 0.325,6.062 1.059,9.19 1.184,9.729 1.72,10.061 2.259,9.936 2.797,9.811 3.13,9.273 3.005,8.735 2.309,5.761 1.999,2.848 1.999,0 1.998,-1.672 2.116,-3.321 2.315,-4.949 c 0.213,-0.285 0.26,-0.648 0.123,-0.973 1.008,-6.924 3.647,-13.435 6.751,-19.433 1.628,0.396 2.819,1.286 3.751,2.529 0.088,0.117 0.181,0.229 0.264,0.353 0.313,0.471 0.585,0.993 0.82,1.553 0.728,1.739 1.086,3.865 1.082,6.101 0.012,2.024 -0.285,4.127 -0.809,6.095 -0.439,1.651 -1.04,3.203 -1.756,4.538 -0.117,0.216 -0.237,0.425 -0.359,0.63 -0.382,0.639 -0.789,1.221 -1.221,1.719 -0.339,0.392 -0.692,0.735 -1.056,1.022 V -0.817 C 9.475,-0.47 9.406,0.16 9.753,0.588 c 0.345,0.433 0.975,0.499 1.406,0.154 0.633,-0.52 1.219,-1.146 1.761,-1.845 4.339,1.926 7.615,5.454 8.634,10.272 0.114,0.541 0.643,0.887 1.184,0.77 0.539,-0.113 0.885,-0.642 0.771,-1.183 -1.141,-5.402 -4.776,-9.352 -9.459,-11.54 0.832,-1.43 1.506,-3.064 2.008,-4.801 1.898,-1.423 4.112,-2.624 6.525,-3.614 -0.293,1.318 -0.437,2.591 -0.436,3.855 0,2.669 0.627,5.257 1.695,8.152 1.36,3.708 1.803,6.943 1.805,10.248 0.002,3.408 -0.484,6.897 -0.943,10.961 -0.061,0.548 0.333,1.044 0.882,1.106 0.549,0.062 1.043,-0.333 1.105,-0.883 0.068,-0.599 0.135,-1.17 0.203,-1.749 2.954,6.044 7.996,10.828 12.485,15.591 -0.531,6.082 -0.791,12.363 -0.791,18.774 0.008,37.598 8.675,79.443 20.925,108.949 -4.684,0.963 -9.324,2.232 -13.872,3.789 -2.839,-5.512 -4.269,-13.436 -5.078,-21.701 -0.973,-9.783 -1.144,-20.015 -2.152,-27.465 -2.028,-14.911 -3.697,-31.05 -8.348,-45.642 0.061,-0.039 0.128,-0.068 0.181,-0.122 0.387,-0.393 0.383,-1.027 -0.01,-1.414 C 29.892,70.913 29.557,70.579 29.219,70.244 28.042,69.075 26.892,67.915 25.771,66.758 17.969,58.71 11.57,50.768 7.445,40.563 3.48,30.882 1.857,18.583 -5.616,10.485 c 0.037,-7.235 0.843,-14.65 3.358,-20.419 0.595,1.531 1.467,3.039 2.617,4.511 C 0.133,-3.645 0.001,-1.839 0,0" /></g><g
           transform="translate(319.8848,98.0625)"
           id="g96"><path
             id="path98"
             style="fill:#d3a07d;fill-opacity:1;fill-rule:nonzero;stroke:none"
             d="m 0,0 c -0.074,0.943 -0.125,1.89 -0.125,2.836 0,2.034 0.175,4.064 0.525,6.052 0.148,0.839 0.327,1.67 0.538,2.489 0.711,0.312 1.488,0.599 2.323,0.857 3.939,1.219 9.108,1.845 14.092,1.877 4.207,-0.008 8.196,-0.473 11.146,-1.638 0.126,13.068 0.454,26.762 0.452,40.051 0.002,15.354 -0.442,30.153 -2.14,42.738 -12.326,-5.384 -26.765,-7.576 -41.019,-7.581 -0.501,0 -1.001,0.011 -1.502,0.017 0.4,-1.939 0.803,-4.15 1.208,-6.602 1.474,-8.94 2.963,-20.942 4.317,-33.293 2.13,-19.413 3.926,-39.677 4.8,-50.217 C -3.88,-1.327 -2.075,-0.516 0,0" /></g><g
           transform="translate(263.7979,194.085)"
           id="g100"><path
             id="path102"
             style="fill:#d3a07d;fill-opacity:1;fill-rule:nonzero;stroke:none"
             d="M 0,0 C -1.287,3.718 -2.373,7.512 -3.309,11.354 -9.576,9.183 -17.165,8.194 -25.114,8.19 c -6.046,0.012 -12.295,0.583 -18.318,1.668 1.571,-32.232 0.661,-75.694 12.933,-105.61 0.945,-1.985 1.853,-4.046 2.816,-5.939 4.528,1.714 10.175,2.672 15.813,2.679 3.693,-0.008 7.381,-0.423 10.736,-1.345 0.058,3.827 0.08,7.709 0.08,11.642 0,9.551 -0.12,19.375 -0.12,29.28 0,18.453 0.425,37.18 2.848,54.953 0.081,0.599 0.169,1.196 0.255,1.792 -0.36,0.108 -0.721,0.214 -1.076,0.323 C 0.559,-1.582 0.274,-0.793 0,0" /></g><g
           transform="translate(359.0068,61.292)"
           id="g104"><path
             id="path106"
             style="fill:#e44044;fill-opacity:1;fill-rule:nonzero;stroke:none"
             d="M 0,0 C -1.461,0.545 -2.852,1.073 -4.115,1.587 -4.56,1.768 -4.997,1.948 -5.408,2.126 V 2.124 c -0.506,0.222 -0.738,0.814 -0.517,1.318 0.222,0.506 0.812,0.739 1.317,0.517 1.366,-0.605 2.953,-1.22 4.668,-1.86 2.024,0.738 3.922,2.248 5.712,3.818 -0.378,7.129 -0.553,14.931 -1.883,21.612 -1.785,0.562 -3.726,1.06 -5.649,1.442 -0.177,-2.995 -0.567,-5.977 -0.921,-8.724 -0.065,-0.507 -0.499,-0.873 -0.995,-0.873 -0.042,0 -0.084,0.003 -0.126,0.008 -0.549,0.073 -0.935,0.574 -0.865,1.123 0.366,2.821 0.755,5.842 0.921,8.816 0.038,0.676 0.051,1.346 0.062,2.015 0.004,0.245 0.023,0.495 0.023,0.738 -0.012,5.697 -1.144,10.723 -4.995,13.751 -0.464,0.365 -0.959,0.707 -1.505,1.011 -0.146,0.083 -0.322,0.155 -0.483,0.233 -2.481,1.203 -6.677,1.824 -11.125,1.812 -5.309,0.039 -11.049,-0.872 -14.709,-2.198 -0.512,-2.295 -0.77,-4.682 -0.77,-7.077 0,-0.819 0.041,-1.637 0.1,-2.454 0.047,-0.667 0.116,-1.33 0.203,-1.99 0.449,-3.415 1.398,-6.73 2.836,-9.681 l 0.002,-0.002 c 0.241,-0.495 0.034,-1.094 -0.463,-1.336 -0.141,-0.068 -0.29,-0.1 -0.437,-0.1 -0.371,0 -0.726,0.207 -0.899,0.561 -1.522,3.127 -2.521,6.597 -3.002,10.166 -2.218,-0.587 -3.994,-1.562 -5.4,-2.834 -0.381,-0.343 -0.743,-0.705 -1.072,-1.089 -0.274,-0.322 -0.527,-0.661 -0.766,-1.011 -1.829,-2.667 -2.681,-6.142 -2.681,-9.956 -0.011,-5.944 2.083,-12.619 5.389,-17.916 0.446,-0.713 0.914,-1.399 1.401,-2.056 -0.248,-0.758 -0.481,-1.545 -0.697,-2.353 -1.236,-4.604 -1.95,-9.932 -1.945,-14.961 0,-2.617 0.196,-5.148 0.592,-7.458 1.254,-1.081 2.548,-2.048 3.907,-2.739 0.181,7.001 1.812,13.969 4.678,18.207 h 0.002 c 0.31,0.456 0.932,0.575 1.388,0.264 0.456,-0.311 0.574,-0.933 0.264,-1.389 -2.615,-3.804 -4.294,-10.913 -4.344,-17.856 -10e-4,-0.141 -0.005,-0.28 -0.005,-0.42 -10e-4,-0.548 0.019,-1.091 0.039,-1.634 0.109,-3.043 0.537,-5.985 1.3,-8.544 13.232,-3.126 26.537,-6.618 40.261,-6.614 7.14,0 14.397,0.965 21.842,3.389 0.24,3.868 0.557,8.16 0.555,12.416 0.017,7.531 -1.037,14.833 -4.951,19.158 C 16.834,-6.077 7.481,-2.794 0,0" /></g><g
           transform="translate(346.3994,195.3916)"
           id="g108"><path
             id="path110"
             style="fill:#4c4c4c;fill-opacity:1;fill-rule:nonzero;stroke:none"
             d="M 0,0 C 0.641,0.286 1.266,0.592 1.894,0.895 5.341,2.563 8.581,4.503 11.565,6.732 7.43,28.106 9.424,50.441 5.735,70.29 2.151,67.655 -1.555,65.963 -5.213,65.929 h -0.058 c -3.372,0 -6.566,1.58 -9.22,4.98 -0.364,-0.177 -0.726,-0.349 -1.077,-0.512 l -0.362,-0.165 -0.371,0.125 c -2.118,0.691 -3.908,1.703 -5.354,3.005 -4.461,-2.193 -8.644,-4.944 -12.647,-8.156 2.897,-2.995 6.196,-5.614 9.9,-7.729 0.478,-0.276 0.643,-0.885 0.37,-1.366 -0.186,-0.321 -0.524,-0.502 -0.869,-0.502 -0.168,0 -0.339,0.043 -0.495,0.134 -3.925,2.249 -7.406,5.025 -10.45,8.191 -0.463,0.481 -0.915,0.972 -1.357,1.472 -9.485,10.703 -14.274,25.382 -14.275,39.562 0,1.99 0.115,3.967 0.305,5.927 0.122,1.269 0.28,2.529 0.483,3.778 0.397,-1.154 0.921,-2.277 1.558,-3.357 3.806,-6.454 11.456,-11.328 18.004,-11.549 0.956,1.315 2.192,2.524 3.651,3.461 1.22,4.429 1.864,8.937 1.864,13.514 0,2.133 -0.14,4.28 -0.423,6.443 -0.137,1.037 -0.309,2.078 -0.512,3.121 0.441,0.867 0.955,1.655 1.539,2.369 2.215,2.705 5.353,4.408 8.65,5.807 0.618,0.263 1.241,0.517 1.865,0.764 0.67,0.264 1.337,0.524 2.001,0.779 0.112,0.534 0.217,1.089 0.312,1.67 -0.782,-0.593 -1.62,-1.166 -2.509,-1.717 -0.576,-0.356 -1.174,-0.703 -1.791,-1.042 -2.742,-1.503 -5.889,-2.837 -9.369,-4.004 -0.486,-0.163 -0.973,-0.326 -1.471,-0.482 -13.142,-4.128 -30.59,-6.035 -48.346,-6.061 -24.637,0.033 -49.718,3.71 -64.546,10.919 -0.657,0.319 -1.297,0.644 -1.912,0.977 -0.087,-0.325 -0.17,-0.654 -0.256,-0.979 -1.319,-4.997 -2.517,-10.09 -3.588,-15.262 -0.137,-0.662 -0.27,-1.326 -0.403,-1.99 -2.596,-12.977 -4.409,-26.397 -5.387,-39.885 -0.058,-0.799 -0.111,-1.598 -0.163,-2.397 -0.457,-7.016 -0.697,-14.045 -0.697,-21.029 0,-12.045 0.701,-23.953 2.111,-35.462 5.846,-3.65 13.778,-6.494 22.352,-8.278 0.67,-0.139 1.342,-0.273 2.018,-0.399 6.048,-1.128 12.352,-1.733 18.423,-1.721 7.864,-0.004 15.34,1.009 21.346,3.118 -4.217,18.297 -5.468,37.486 -10.681,53.901 -5.102,3.546 -12.015,5.341 -18.132,5.326 -0.899,0 -1.777,-0.04 -2.629,-0.115 v -0.002 c -0.552,-0.048 -1.037,0.36 -1.085,0.909 -0.051,0.551 0.357,1.039 0.907,1.086 0.912,0.079 1.851,0.121 2.807,0.121 5.629,-0.013 11.929,-1.39 17.113,-4.311 0.943,-0.531 1.843,-1.119 2.702,-1.755 0.381,-1.173 0.747,-2.356 1.09,-3.554 4.566,-15.96 5.923,-33.918 9.788,-50.882 0.151,-0.66 0.303,-1.318 0.461,-1.973 1.025,-4.253 2.223,-8.436 3.687,-12.5 0.035,-0.098 0.074,-0.194 0.11,-0.292 0.589,-0.176 1.182,-0.349 1.784,-0.518 10.027,-2.811 21.748,-4.682 33.724,-5.026 0.688,-0.02 1.375,-0.033 2.064,-0.043 0.645,-0.009 1.29,-0.021 1.937,-0.021 C -26.456,-7.654 -12.098,-5.395 0,0" /></g><g
           transform="translate(172.7598,603.6411)"
           id="g112"><path
             id="path114"
             style="fill:#ffffff;fill-opacity:1;fill-rule:nonzero;stroke:none"
             d="m 0,0 c 0.407,2.761 0.7,5.799 0.699,8.748 0.003,3.165 -0.351,6.203 -1.187,8.628 -0.847,-4.75 -4.052,-8.461 -8.272,-8.517 -4.05,0.053 -7.167,3.469 -8.161,7.94 -1.121,-2.624 -1.594,-5.887 -1.591,-9.237 -0.004,-3.503 0.506,-7.093 1.221,-10.114 3.882,1.951 8.292,3.003 12.587,3.007 C -3.109,0.455 -1.531,0.302 0,0" /></g><g
           transform="translate(164,623.6665)"
           id="g116"><path
             id="path118"
             style="fill:#ffffff;fill-opacity:1;fill-rule:nonzero;stroke:none"
             d="m 0,0 c 0,-1.657 -1.343,-3 -3,-3 -1.657,0 -3,1.343 -3,3 0,1.657 1.343,3 3,3 1.657,0 3,-1.343 3,-3" /></g><g
           transform="translate(229.3335,624.4995)"
           id="g120"><path
             id="path122"
             style="fill:#ffffff;fill-opacity:1;fill-rule:nonzero;stroke:none"
             d="m 0,0 c 0,-1.657 -1.343,-3 -3,-3 -1.657,0 -3,1.343 -3,3 0,1.657 1.343,3 3,3 1.657,0 3,-1.343 3,-3" /></g></g></g><g
       id="g124"><g
         clip-path="url(#clipPath130)"
         id="g126"><g
           id="g132"><g
             id="g134" /><g
             id="g254"><g
               style="opacity:0.14999402"
               id="g252"
               clip-path="url(#clipPath138)"><g
                 id="g142"
                 transform="translate(142.9009,698.019)"><path
                   id="path140"
                   style="fill:#020202;fill-opacity:1;fill-rule:nonzero;stroke:none"
                   d="m 0,0 c 0.001,0.879 0.023,1.76 0.064,2.642 -3.476,-9.708 -5.362,-19.572 -6.044,-29.537 2.011,4.728 4.531,9.187 7.844,13.216 C 0.597,-9.273 0,-4.664 0,0" /></g><g
                 id="g146"
                 transform="translate(350.5313,712.4595)"><path
                   id="path144"
                   style="fill:#020202;fill-opacity:1;fill-rule:nonzero;stroke:none"
                   d="m 0,0 c -0.145,-0.258 -0.289,-0.511 -0.431,-0.756 -5.22,-9.029 -12.797,-13.896 -22.932,-16.248 -11.496,-2.668 -23.75,-2.831 -35.324,-0.497 -0.148,0.03 -0.299,0.064 -0.449,0.095 -0.894,-1.129 -1.787,-2.231 -2.664,-3.282 20.444,-15.802 26.051,-41.94 33.762,-64.976 4.972,7.53 13.893,13.001 22.763,13.046 3.669,0.008 7.337,-0.975 10.657,-3.147 1.652,8.664 2.529,17.96 2.527,27.479 C 7.908,-32.117 5.4,-15.36 0,0" /></g><g
                 id="g150"
                 transform="translate(255.6973,640.6152)"><path
                   id="path148"
                   style="fill:#020202;fill-opacity:1;fill-rule:nonzero;stroke:none"
                   d="m 0,0 c 2.957,0.004 5.782,0.515 8.444,1.619 -8.604,2.726 -14.031,9.291 -18.555,16.349 -4.576,7.128 -8.461,14.771 -13.97,19.993 -3.48,-0.438 -6.886,-2.489 -9.513,-5.404 -2.984,-3.294 -4.914,-7.649 -4.906,-11.695 0.004,-0.981 0.122,-1.94 0.352,-2.87 C -27.844,9.519 -12.839,-0.049 0,0" /></g><g
                 id="g154"
                 transform="translate(164.4253,673.6919)"><path
                   id="path152"
                   style="fill:#020202;fill-opacity:1;fill-rule:nonzero;stroke:none"
                   d="m 0,0 c -6.143,-8.689 -13.545,-17.085 -21.785,-24.087 3.072,-1.642 5.941,-2.36 8.533,-2.36 4.497,0.004 8.256,2.1 10.958,5.393 2.697,3.288 4.277,7.775 4.275,12.397 C 1.98,-5.736 1.354,-2.771 0,0" /></g><g
                 id="g158"
                 transform="translate(333.7432,267.2305)"><path
                   id="path156"
                   style="fill:#020202;fill-opacity:1;fill-rule:nonzero;stroke:none"
                   d="M 0,0 C 0.153,-0.187 0.309,-0.348 0.464,-0.52 2.446,0.316 4.261,1.742 5.9,3.484 3.918,2.175 1.904,1.001 0,0" /></g><g
                 id="g162"
                 transform="translate(368.5303,334.1592)"><path
                   id="path160"
                   style="fill:#020202;fill-opacity:1;fill-rule:nonzero;stroke:none"
                   d="m 0,0 c 3.943,21.034 15.189,49.624 15.368,71.798 -1.363,3.954 -3.035,7.953 -4.85,11.928 C 8.667,67.488 4.672,51.556 0.045,35.836 -3.149,24.983 -6.387,14.133 -8.494,3.004 c -1.962,-10.359 1.407,-20.491 0.73,-30.856 -0.712,-10.894 -5.034,-22.301 -10.655,-31.583 -2.461,-4.063 -5.696,-8.376 -9.6,-11.365 0.225,-0.017 0.449,-0.038 0.675,-0.039 3.23,-0.036 6.878,1.731 10.514,4.545 0.577,0.447 1.152,0.925 1.726,1.421 2.296,1.985 4.561,4.338 6.681,6.882 5.232,6.223 9.67,13.475 12.041,18.568 -1.17,10.255 -4.418,19.681 -4.436,30.463 0,2.884 0.237,5.857 0.818,8.96" /></g><g
                 id="g166"
                 transform="translate(297.0088,303.4922)"><path
                   id="path164"
                   style="fill:#020202;fill-opacity:1;fill-rule:nonzero;stroke:none"
                   d="m 0,0 c -0.054,-1.04 -0.088,-2.085 -0.088,-3.133 -0.001,-3.644 0.33,-7.32 0.981,-10.946 0.005,-0.003 0.012,-0.002 0.019,-0.005 3.273,-1.519 6.919,-2.477 10.321,-2.474 1.81,0.001 3.537,0.278 5.127,0.856 -0.191,0.513 -0.284,1.065 -0.283,1.624 0.024,1.201 0.379,2.52 1.013,3.816 C 10.795,-9.594 4.171,-5.596 0,0" /></g><g
                 id="g170"
                 transform="translate(323.3223,270.2754)"><path
                   id="path168"
                   style="fill:#020202;fill-opacity:1;fill-rule:nonzero;stroke:none"
                   d="m 0,0 c -0.869,1.1 -1.552,2.35 -2.04,3.74 -0.221,0.628 -0.401,1.285 -0.542,1.97 0.705,0.037 1.375,0.129 2.01,0.276 3.485,0.811 5.971,3.172 8.355,5.917 2.09,2.391 3.984,5.07 6.373,6.949 -0.26,3.535 -1.322,7.175 -2.629,10.046 -1.158,0.464 -2.08,0.656 -2.788,0.652 C 7.495,29.529 6.818,29.079 6.094,28.162 5.392,27.245 4.81,25.837 4.201,24.285 2.977,21.221 1.561,17.389 -2.501,15.907 -3.898,15.41 -5.095,15.17 -6.141,15.17 h -0.04 c -0.961,0 -1.814,0.235 -2.488,0.687 -2.007,-0.832 -4.188,-1.2 -6.399,-1.2 h -0.012 c -3.312,0.003 -6.718,0.806 -9.864,2.095 2.028,-9.219 6.171,-17.989 12.36,-24.959 C -8.615,-5.012 -4.451,-2.243 0,0" /></g><g
                 id="g174"
                 transform="translate(240.9189,490.5176)"><path
                   id="path172"
                   style="fill:#020202;fill-opacity:1;fill-rule:nonzero;stroke:none"
                   d="M 0,0 C 0,0.554 -0.036,1.112 -0.098,1.672 -1.133,1.64 -2.168,1.605 -3.207,1.605 c -2.016,0.001 -4.039,0.08 -6.064,0.203 -1.747,-3.968 -3.516,-8.904 -3.502,-13.107 0.08,-4.434 1.666,-7.83 7.475,-9.372 0.888,-0.224 1.735,-0.328 2.546,-0.328 3.238,0.002 6.037,1.666 8.627,4.475 2.575,2.802 4.848,6.71 6.9,10.885 1.549,3.133 2.956,6.398 4.31,9.473 C 12.134,2.706 7.05,2.027 1.903,1.756 1.963,1.17 2.001,0.584 2.001,0 c 0,-3.004 -0.818,-5.966 -2.592,-8.58 -0.194,-0.284 -0.508,-0.438 -0.828,-0.438 -0.194,0 -0.389,0.057 -0.561,0.173 -0.459,0.31 -0.578,0.933 -0.268,1.389 C -0.708,-5.187 -0.002,-2.645 0,0" /></g><g
                 id="g178"
                 transform="translate(284.1519,494.603)"><path
                   id="path176"
                   style="fill:#020202;fill-opacity:1;fill-rule:nonzero;stroke:none"
                   d="M 0,0 C 5.394,5.233 8.051,12.407 11.944,18.66 3.094,12.056 -5.963,6.765 -14.101,3.49 c -3.114,-1.252 -6.321,-2.274 -9.585,-3.123 -0.654,-1.461 -1.321,-2.989 -2.005,-4.541 -1.39,-3.128 -2.862,-6.36 -4.493,-9.385 C -19.134,-11.988 -8.088,-7.849 0,0" /></g><g
                 id="g182"
                 transform="translate(219.04,484.3242)"><path
                   id="path180"
                   style="fill:#020202;fill-opacity:1;fill-rule:nonzero;stroke:none"
                   d="M 0,0 C 2.42,-0.765 4.88,-1.43 7.365,-1.991 7.896,1.533 9.18,5.101 10.493,8.144 6.803,8.443 3.11,8.936 -0.561,9.62 -1.671,6.963 -2.752,4.198 -3.8,1.345 -2.518,0.838 -1.239,0.391 0,0" /></g><g
                 id="g186"
                 transform="translate(323.2363,427.1689)"><path
                   id="path184"
                   style="fill:#020202;fill-opacity:1;fill-rule:nonzero;stroke:none"
                   d="m 0,0 c -6.747,-32.871 -12.502,-65.949 -2.326,-98.6 3.179,1.11 6.037,2.355 8.49,3.738 -3.805,14.887 -5.894,29.762 -5.894,44.678 0,13.777 1.787,27.588 5.626,41.469 C 3.847,-5.884 1.892,-2.966 0,0" /></g><g
                 id="g190"
                 transform="translate(266.6357,90.0938)"><path
                   id="path188"
                   style="fill:#020202;fill-opacity:1;fill-rule:nonzero;stroke:none"
                   d="m 0,0 c -0.645,0.325 -1.32,0.624 -2.026,0.894 -0.642,0.247 -1.302,0.474 -1.986,0.675 -2.656,0.781 -5.607,1.213 -8.629,1.349 3.716,-10.119 -0.706,-23.029 -5.884,-31.843 -6.332,-10.776 -19.089,-12.625 -30.487,-13.857 -13.733,-1.486 -29.48,-2.957 -43.682,-0.013 -0.031,-0.331 -0.053,-0.664 -0.053,-1.001 -0.001,-1.391 0.295,-2.88 0.906,-4.466 0.313,0.006 0.622,0.021 0.939,0.021 9.492,-0.009 20.416,-2.492 31.14,-2.483 4.631,0 9.206,0.459 13.616,1.75 0.995,0.291 1.982,0.628 2.959,1.009 0.998,-0.322 2.051,-0.595 3.159,-0.811 2.387,-0.468 4.992,-0.704 7.707,-0.701 10.273,-0.016 21.973,3.253 28.45,8.046 0.366,1.461 0.526,3.009 0.527,4.635 0.01,4.18 -0.993,8.712 -1.577,12.992 -0.094,0.683 -0.169,1.356 -0.235,2.022 0.721,0.248 1.354,0.56 1.908,0.935 0.818,0.554 1.478,1.232 2.018,2.018 1.497,2.196 2.049,5.417 2.042,9.034 C 0.814,-6.656 0.415,-3.255 0,0" /></g><g
                 id="g194"
                 transform="translate(193.6772,293.4834)"><path
                   id="path192"
                   style="fill:#020202;fill-opacity:1;fill-rule:nonzero;stroke:none"
                   d="m 0,0 c 0.21,-0.038 0.38,-0.151 0.52,-0.293 0.151,-0.007 0.301,-0.018 0.451,-0.023 0.908,6.863 2.023,13.663 3.353,20.347 -4.858,0.238 -10.26,1.008 -15.309,2.561 -0.827,0.255 -1.641,0.534 -2.445,0.831 -2.342,0.866 -4.557,1.925 -6.564,3.187 0.249,-1.447 0.384,-2.923 0.391,-4.375 -0.003,-2.859 -0.515,-5.636 -1.735,-7.911 C -16.282,7.87 -8.812,1.576 0,0" /></g><g
                 id="g198"
                 transform="translate(184.2729,294.7891)"><path
                   id="path196"
                   style="fill:#020202;fill-opacity:1;fill-rule:nonzero;stroke:none"
                   d="M 0,0 C -5.243,2.858 -9.674,7.023 -13.095,11.281 -14.132,10.045 -15.506,9.108 -17.164,8.597 -17.223,8.578 -17.288,8.568 -17.348,8.551 -12.177,4.71 -6.216,1.722 0,0" /></g><g
                 id="g202"
                 transform="translate(156.8979,309.1094)"><path
                   id="path200"
                   style="fill:#020202;fill-opacity:1;fill-rule:nonzero;stroke:none"
                   d="M 0,0 C 1.107,0.753 2.613,0.862 3.828,-0.383 4.687,-1.263 5.596,-2.108 6.53,-2.935 4.074,2.064 1.968,7.441 0.876,13.165 0.009,11.756 -0.561,10.347 -0.886,8.933 -1.11,7.956 -1.229,6.977 -1.231,5.993 -1.232,5.938 -1.224,5.882 -1.223,5.827 -1.212,3.916 -0.773,1.965 0,0" /></g><g
                 id="g206"
                 transform="translate(354.0127,614.3262)"><path
                   id="path204"
                   style="fill:#020202;fill-opacity:1;fill-rule:nonzero;stroke:none"
                   d="m 0,0 c -0.966,5.009 -2.966,6.497 -5.555,6.548 -3.353,0.055 -8.187,-3.103 -12.254,-7.817 2.321,-0.231 4.425,-1.292 5.98,-2.981 1.773,-1.92 2.835,-4.639 2.835,-7.805 0,-0.273 -0.008,-0.546 -0.021,-0.82 -0.025,-0.535 -0.469,-0.952 -0.998,-0.951 -0.015,0 -0.032,0 -0.048,0.001 -0.552,0.027 -0.98,0.497 -0.951,1.047 0.011,0.248 0.017,0.487 0.017,0.723 -0.037,5.445 -3.499,8.813 -7.791,8.836 -0.204,-0.001 -0.411,-0.01 -0.62,-0.026 -4.016,-5.278 -6.967,-11.897 -6.953,-17.594 0.002,-2.751 0.662,-5.266 2.166,-7.413 0.316,-0.453 0.206,-1.076 -0.247,-1.394 -0.027,-0.019 -0.057,-0.026 -0.085,-0.042 2.789,-2.666 13.428,6.212 14.835,7.842 5.188,6.013 10.14,13.193 10.073,21.232 C 0.19,-0.468 0.046,-0.257 0,0" /></g><g
                 id="g210"
                 transform="translate(180.0957,563.2261)"><path
                   id="path208"
                   style="fill:#020202;fill-opacity:1;fill-rule:nonzero;stroke:none"
                   d="M 0,0 C 0.715,0.589 1.657,0.916 2.681,0.733 2.933,0.791 3.183,0.755 3.395,0.634 3.481,0.841 4.514,1.091 5.125,1.53 6.201,2.304 7.246,3.335 7.978,4.445 8.955,5.927 10.975,9.135 8.567,10.298 3.42,12.787 -2.93,9.926 -8.309,10.266 c -2.045,0.13 -3.928,0.521 -5.687,1.16 0.026,-3.126 0.818,-6.121 2.434,-8.28 1.652,-2.189 4.08,-3.604 7.764,-3.621 1.139,0 2.413,0.163 3.798,0.475" /></g><g
                 id="g214"
                 transform="translate(330.5146,555.0938)"><path
                   id="path212"
                   style="fill:#020202;fill-opacity:1;fill-rule:nonzero;stroke:none"
                   d="m 0,0 c -3.261,-3.388 -6.552,-6.246 -10.185,-9.224 -8.227,-6.747 -15.942,-13.755 -25.113,-19.234 -18.008,-10.759 -36.489,-17.178 -57.472,-18.636 -19.892,-1.382 -42.317,0.267 -59.133,12.136 -13.425,9.475 -23.913,22.048 -34.784,34.202 0.039,-0.113 0.071,-0.217 0.112,-0.332 8.932,-24.988 31.647,-44.056 57.747,-53.439 0.641,-0.23 1.284,-0.448 1.928,-0.666 4.479,-1.519 9.046,-2.75 13.655,-3.681 0.668,-0.135 1.335,-0.279 2.004,-0.401 3.695,-0.674 7.41,-1.152 11.119,-1.425 0.715,-0.053 1.43,-0.082 2.145,-0.119 1.728,-0.09 3.454,-0.152 5.174,-0.151 0.925,0 1.846,0.033 2.767,0.059 0.677,0.02 1.353,0.04 2.029,0.074 5.627,0.284 11.164,1.082 16.528,2.41 0.834,0.207 1.67,0.411 2.496,0.644 2.643,0.746 5.239,1.62 7.775,2.638 7.598,3.052 16.106,7.958 24.487,14.091 1.166,0.853 2.329,1.723 3.486,2.622 0.844,0.656 1.684,1.326 2.521,2.005 l 6.825,5.865 c 2.576,2.347 5.086,4.786 7.488,7.306 C -8.838,-15.33 -2.34,-6.647 2.075,2.12 1.376,1.42 0.685,0.711 0,0" /></g><g
                 id="g218"
                 transform="translate(213.3979,486.4399)"><path
                   id="path216"
                   style="fill:#020202;fill-opacity:1;fill-rule:nonzero;stroke:none"
                   d="m 0,0 c 1,2.717 2.027,5.359 3.084,7.903 -4.685,0.963 -9.324,2.232 -13.872,3.789 -0.311,-0.603 -0.598,-1.247 -0.876,-1.905 C -9.543,5.305 -4.901,2.177 0,0" /></g><g
                 id="g222"
                 transform="translate(188.7598,371.0381)"><path
                   id="path220"
                   style="fill:#020202;fill-opacity:1;fill-rule:nonzero;stroke:none"
                   d="m 0,0 c -3.593,-4.396 -9.273,-8.896 -10.865,-14.541 -1.376,-4.878 -0.99,-10.673 -4.257,-14.825 -2.896,-3.681 -9.099,-6.614 -9.158,-11.857 -0.081,-7.06 3.566,-16.587 1.251,-23.781 0.143,-0.283 0.281,-0.571 0.426,-0.851 1.629,0.396 2.82,1.286 3.751,2.529 0.088,0.117 0.181,0.229 0.265,0.353 0.312,0.471 0.584,0.993 0.819,1.553 0.729,1.739 1.086,3.865 1.083,6.101 0.011,2.024 -0.286,4.127 -0.81,6.095 -0.439,1.651 -1.039,3.203 -1.756,4.538 -0.116,0.216 -0.236,0.425 -0.358,0.63 -0.382,0.639 -0.789,1.221 -1.221,1.719 -0.34,0.392 -0.693,0.735 -1.057,1.022 v -0.002 c -0.43,0.347 -0.499,0.977 -0.152,1.405 0.346,0.433 0.975,0.499 1.406,0.154 0.634,-0.52 1.22,-1.146 1.762,-1.845 4.339,1.926 7.615,5.454 8.633,10.272 0.114,0.541 0.643,0.887 1.184,0.77 0.539,-0.113 0.885,-0.642 0.771,-1.183 -1.14,-5.402 -4.775,-9.352 -9.459,-11.54 0.833,-1.43 1.507,-3.064 2.009,-4.801 1.898,-1.423 4.112,-2.624 6.525,-3.614 -0.293,1.318 -0.438,2.591 -0.437,3.855 0,2.669 0.628,5.257 1.695,8.152 1.361,3.708 1.803,6.943 1.805,10.248 0.002,3.408 -0.483,6.897 -0.942,10.961 -0.062,0.548 0.332,1.044 0.882,1.106 0.548,0.062 1.043,-0.333 1.105,-0.883 0.068,-0.599 0.135,-1.17 0.202,-1.749 2.955,6.044 7.996,10.828 12.485,15.591 C 7.17,0.36 6.926,5.266 6.838,10.256 4.834,6.662 2.609,3.193 0,0" /></g><g
                 id="g226"
                 transform="translate(346.6963,193.3242)"><path
                   id="path224"
                   style="fill:#020202;fill-opacity:1;fill-rule:nonzero;stroke:none"
                   d="m 0,0 c -12.326,-5.384 -26.766,-7.576 -41.019,-7.581 -0.502,0 -1.002,0.012 -1.502,0.018 0.337,-1.634 0.676,-3.471 1.016,-5.471 6.768,1.044 14.027,-0.067 20.715,-0.131 7.223,-0.07 12.878,-1.405 15.222,-9.001 6.133,-19.873 -6.621,-39.197 -3.431,-58.992 4.035,-0.041 7.845,-0.509 10.686,-1.631 0.127,13.068 0.455,26.763 0.453,40.052 C 2.142,-27.384 1.697,-12.585 0,0" /></g><g
                 id="g230"
                 transform="translate(265.7266,191.3955)"><path
                   id="path228"
                   style="fill:#020202;fill-opacity:1;fill-rule:nonzero;stroke:none"
                   d="m 0,0 c -0.36,0.107 -0.72,0.214 -1.076,0.322 -0.294,0.785 -0.578,1.575 -0.853,2.368 -1.287,3.717 -2.373,7.511 -3.308,11.354 -6.268,-2.172 -13.856,-3.16 -21.805,-3.164 -6.046,0.012 -12.296,0.583 -18.319,1.668 0.145,-2.978 0.269,-6.052 0.384,-9.201 0.048,-0.008 0.098,-0.017 0.145,-0.025 4.933,-0.794 9.82,-1.732 14.776,-2.35 9.992,-1.244 16.364,-7.574 17.624,-17.545 0.934,-7.391 -0.095,-14.869 -0.254,-22.282 -0.19,-8.918 -0.074,-17.852 0.615,-26.749 0.683,-8.831 0.957,-17.635 0.983,-26.495 0.005,-1.437 0.026,-2.873 0.025,-4.306 2.762,-0.162 5.475,-0.569 8,-1.262 0.058,3.826 0.08,7.709 0.08,11.642 0,9.55 -0.12,19.375 -0.12,29.28 0,18.453 0.425,37.18 2.848,54.953 C -0.173,-1.193 -0.086,-0.597 0,0" /></g><g
                 id="g234"
                 transform="translate(379.8555,50.666)"><path
                   id="path232"
                   style="fill:#020202;fill-opacity:1;fill-rule:nonzero;stroke:none"
                   d="m 0,0 c -4.015,4.549 -13.367,7.832 -20.849,10.626 -0.174,0.065 -0.338,0.128 -0.511,0.193 5.085,-7.103 10.143,-14.468 11.286,-23.282 0.591,-4.559 1.705,-11.891 -3.207,-14.104 -4.993,-2.25 -10.865,-2.485 -16.24,-1.999 -9.623,0.868 -19.545,1.999 -29.023,3.993 0.211,-1.32 0.484,-2.592 0.837,-3.776 13.232,-3.126 26.537,-6.618 40.262,-6.614 7.139,0 14.396,0.965 21.842,3.389 0.24,3.868 0.556,8.16 0.554,12.416 C 4.969,-11.627 3.914,-4.325 0,0" /></g><g
                 id="g238"
                 transform="translate(207.7363,321.8828)"><path
                   id="path236"
                   style="fill:#020202;fill-opacity:1;fill-rule:nonzero;stroke:none"
                   d="m 0,0 c 4.015,-1.559 8.134,-2.84 12.288,-3.972 7.682,-2.093 15.46,-3.88 23.289,-5.335 12.694,-2.359 25.693,-2.133 38.481,-0.665 8.035,0.923 16.013,2.219 23.996,3.504 4.843,0.78 9.827,1.2 14.678,2.083 -0.039,0.36 -0.058,0.718 -0.105,1.078 -0.137,1.037 -0.309,2.079 -0.512,3.122 0.441,0.867 0.955,1.655 1.539,2.369 2.215,2.705 5.353,4.408 8.65,5.807 0.618,0.263 1.241,0.517 1.865,0.764 0.67,0.264 1.337,0.523 2.001,0.779 0.112,0.533 0.217,1.089 0.312,1.67 C 125.7,10.61 124.862,10.038 123.973,9.487 123.397,9.131 122.799,8.784 122.182,8.445 119.44,6.941 116.293,5.607 112.814,4.44 112.327,4.277 111.84,4.115 111.342,3.959 98.2,-0.169 80.753,-2.076 62.996,-2.102 38.359,-2.069 13.278,1.607 -1.55,8.816 -2.206,9.136 -2.847,9.461 -3.462,9.794 -3.549,9.469 -3.632,9.14 -3.718,8.815 -4.273,6.711 -4.795,4.581 -5.307,2.445 -3.841,1.374 -1.056,0.41 0,0" /></g><g
                 id="g242"
                 transform="translate(296.7759,307.6416)"><path
                   id="path240"
                   style="fill:#020202;fill-opacity:1;fill-rule:nonzero;stroke:none"
                   d="m 0,0 c 0.162,-0.312 0.312,-0.628 0.492,-0.934 3.805,-6.454 11.456,-11.328 18.004,-11.549 0.956,1.315 2.191,2.524 3.651,3.461 1.13,4.102 1.758,8.271 1.846,12.5 C 17.686,2.327 11.183,1.768 4.914,0.771 3.277,0.512 1.639,0.255 0,0" /></g><g
                 id="g246"
                 transform="translate(323.5293,258.4678)"><path
                   id="path244"
                   style="fill:#020202;fill-opacity:1;fill-rule:nonzero;stroke:none"
                   d="m 0,0 c 0.303,0.113 0.627,0.181 0.971,0.181 h 0.5 c 1.066,0 1.842,-0.407 2.345,-1.007 6.619,-3.143 11.676,-7.125 19.549,-4.538 2.271,0.746 4.466,1.667 6.635,2.649 C 29.649,0.649 29.209,3.968 28.605,7.214 25.021,4.579 21.315,2.887 17.657,2.852 h -0.058 c -3.371,0 -6.566,1.581 -9.22,4.981 C 8.015,7.656 7.653,7.483 7.302,7.321 L 6.94,7.156 6.569,7.281 C 4.451,7.972 2.661,8.983 1.215,10.286 -3.246,8.093 -7.429,5.342 -11.432,2.13 -9.784,0.427 -7.992,-1.138 -6.085,-2.574 -4.388,-1.175 -2.307,-0.368 0,0" /></g><g
                 id="g250"
                 transform="translate(231.2173,266.6201)"><path
                   id="path248"
                   style="fill:#020202;fill-opacity:1;fill-rule:nonzero;stroke:none"
                   d="m 0,0 c -0.398,0 -0.791,-0.011 -1.18,-0.026 0.809,-4.204 1.573,-8.371 3.413,-12.455 2.673,-5.933 4.696,-11.912 6.806,-18.06 3.507,-10.221 7.285,-20.472 8.758,-31.166 3.991,0.511 7.728,1.325 11.016,2.48 -4.217,18.296 -5.468,37.486 -10.681,53.901 C 13.03,-1.78 6.117,0.015 0,0" /></g></g></g></g></g></g><g
       id="g256"><g
         clip-path="url(#clipPath262)"
         id="g258"><g
           transform="translate(166.874,585.8359)"
           id="g264"><path
             id="path266"
             style="fill:#020101;fill-opacity:1;fill-rule:nonzero;stroke:none"
             d="m 0,0 c -1.892,-3.046 -2.977,-7.06 -2.979,-11.014 0.002,-3.862 0.996,-7.238 2.874,-9.764 2.147,-2.906 5.512,-4.508 9.478,-4.508 h 0.051 c 2.153,0.002 4.538,0.443 7.088,1.314 0.624,0.215 0.962,0.897 0.75,1.523 -0.164,0.487 -0.622,0.812 -1.136,0.812 -0.132,0 -0.262,-0.02 -0.387,-0.064 -2.303,-0.786 -4.428,-1.183 -6.315,-1.183 -3.33,0.014 -5.817,1.173 -7.606,3.54 -1.549,2.07 -2.399,5.029 -2.398,8.33 -0.003,3.476 0.975,7.117 2.62,9.744 1.745,2.787 3.987,4.259 6.484,4.259 1.987,0 4.12,-0.925 6.34,-2.75 0.214,-0.177 0.484,-0.274 0.761,-0.274 0.361,0 0.697,0.159 0.926,0.436 0.421,0.512 0.348,1.27 -0.16,1.691 C 13.732,4.281 11.085,5.391 8.524,5.391 5.181,5.389 2.155,3.475 0,0" /></g><g
           transform="translate(174.3525,545.8589)"
           id="g268"><path
             id="path270"
             style="fill:#020101;fill-opacity:1;fill-rule:nonzero;stroke:none"
             d="m 0,0 c -0.197,-0.631 0.157,-1.308 0.791,-1.505 0.113,-0.035 0.234,-0.053 0.354,-0.053 0.529,0 0.99,0.338 1.149,0.843 0.813,2.607 2.972,4.516 6.601,5.836 3.245,1.173 7.724,1.794 13.05,1.794 11.686,0 25.822,-3.047 32.219,-5.872 0.153,-0.067 0.316,-0.102 0.481,-0.102 0.477,0 0.908,0.281 1.102,0.717 0.128,0.293 0.136,0.621 0.018,0.919 C 55.649,2.876 55.423,3.112 55.13,3.241 48.318,6.216 34.018,9.302 21.876,9.314 16.279,9.31 11.639,8.659 8.083,7.375 3.766,5.83 1.047,3.349 0,0" /></g><g
           transform="translate(251.1113,533.5308)"
           id="g272"><path
             id="path274"
             style="fill:#020101;fill-opacity:1;fill-rule:nonzero;stroke:none"
             d="m 0,0 c -10.032,5.945 -20.576,6.707 -28.643,6.705 -4.448,-0.002 -8.963,-0.268 -13.33,-0.527 -4.278,-0.254 -8.702,-0.515 -12.988,-0.515 -7.306,0 -13.116,0.778 -18.283,2.449 -0.12,0.038 -0.243,0.059 -0.367,0.059 -0.523,0 -0.982,-0.335 -1.142,-0.833 -0.1,-0.302 -0.073,-0.627 0.072,-0.913 0.145,-0.286 0.394,-0.498 0.7,-0.596 5.414,-1.751 11.457,-2.565 19.02,-2.565 4.382,0.002 8.865,0.265 13.199,0.522 4.309,0.256 8.767,0.519 13.119,0.519 7.763,-0.002 17.894,-0.727 27.417,-6.366 0.186,-0.11 0.397,-0.169 0.613,-0.169 0.425,0 0.821,0.225 1.033,0.586 0.164,0.278 0.209,0.601 0.131,0.911 C 0.472,-0.423 0.275,-0.162 0,0" /></g><g
           transform="translate(212,525.7002)"
           id="g276"><path
             id="path278"
             style="fill:#020101;fill-opacity:1;fill-rule:nonzero;stroke:none"
             d="m 0,0 c -0.114,0 -0.228,-0.016 -0.335,-0.049 -3.708,-1.077 -7.434,-1.624 -11.074,-1.624 -4.602,0 -8.84,0.864 -12.596,2.567 C -24.161,0.966 -24.328,1 -24.499,1 c -0.471,0 -0.902,-0.276 -1.095,-0.705 -0.273,-0.602 -0.002,-1.315 0.597,-1.587 4.072,-1.844 8.643,-2.779 13.588,-2.779 3.866,0 7.817,0.577 11.744,1.719 0.635,0.185 1,0.852 0.815,1.488 C 1.002,-0.356 0.528,0 0,0" /></g><g
           transform="translate(228.0005,609.7988)"
           id="g280"><path
             id="path282"
             style="fill:#020101;fill-opacity:1;fill-rule:nonzero;stroke:none"
             d="M 0,0 C 5.71,0.065 10.191,5.863 10.201,13.203 10.197,14.91 9.946,16.576 9.449,18.162 9.723,18.121 10.001,18.074 10.283,18.021 21.893,15.977 29.381,1.914 29.741,-10.064 23.477,-8.001 15.989,-6.912 8.065,-6.908 2.502,-6.91 -3.061,-7.466 -8.04,-8.521 -8.12,-6.908 -8.159,-5.454 -8.159,-4.082 -8.161,-0.985 -7.96,1.846 -7.562,4.34 -5.657,1.609 -2.925,0.035 0,0 M 5.405,5.436 C 3.929,3.479 2.01,2.402 -0.002,2.402 c -2.01,0 -3.929,1.077 -5.403,3.034 -0.542,0.722 -1.01,1.554 -1.386,2.474 0.413,1.47 0.883,2.713 1.439,3.798 2.367,4.563 5.969,6.704 11.332,6.736 0.272,0 0.552,-0.006 0.834,-0.018 C 7.46,16.827 7.799,15.022 7.797,13.203 7.799,10.297 6.926,7.466 5.405,5.436 m 5.311,14.946 C 9.901,20.532 9.081,20.648 8.28,20.728 7.486,20.806 6.713,20.846 5.978,20.846 L 5.865,20.844 C -1.86,20.842 -5.663,16.465 -7.49,12.796 -7.693,12.397 -7.869,11.976 -8.069,11.5 -8.541,10.385 -8.948,9.159 -9.283,7.853 c -0.853,-3.347 -1.272,-7.249 -1.276,-11.935 0,-1.599 0.049,-3.29 0.151,-5.17 0.037,-0.683 0.078,-1.362 0.125,-2.033 0.004,-0.059 0.035,-0.112 0.084,-0.147 0.034,-0.024 0.076,-0.039 0.118,-0.039 0.015,0 0.031,0.002 0.047,0.007 0.648,0.167 1.297,0.333 1.967,0.48 4.974,1.096 10.541,1.674 16.197,1.674 7.89,0 15.601,-1.177 21.713,-3.313 0.669,-0.236 1.323,-0.483 1.961,-0.745 0.024,-0.01 0.049,-0.014 0.075,-0.014 0.038,0 0.074,0.01 0.107,0.03 0.053,0.036 0.09,0.093 0.094,0.156 0.053,0.814 0.08,1.49 0.082,2.153 -0.033,13.447 -8.061,28.878 -21.446,31.425" /></g><g
           transform="translate(170.2983,623.5015)"
           id="g284"><path
             id="path286"
             style="fill:#020101;fill-opacity:1;fill-rule:nonzero;stroke:none"
             d="m 0,0 c 0.002,-2.379 -0.71,-4.694 -1.954,-6.351 -1.192,-1.58 -2.735,-2.45 -4.344,-2.45 -1.608,0 -3.152,0.87 -4.344,2.448 -1.201,1.601 -1.891,3.747 -1.946,6.05 1.412,1.719 3.245,2.747 5.596,3.139 0.638,0.108 1.254,0.16 1.835,0.16 2.225,-0.02 3.858,-0.724 5.131,-2.217 C -0.01,0.522 0.002,0.263 0,0 m 2.013,-3.273 c 0.625,-2.139 0.951,-4.83 0.947,-7.84 0.002,-2.579 -0.223,-5.442 -0.666,-8.511 -1.473,0.279 -2.998,0.418 -4.536,0.418 -4.28,-0.003 -8.58,-1.011 -12.45,-2.915 -0.751,3.253 -1.163,6.731 -1.16,9.822 -0.002,3.298 0.462,6.25 1.346,8.587 1.206,-4.457 4.443,-7.441 8.21,-7.49 3.943,0.055 7.211,3.206 8.309,7.929 M -7.38,5.208 c -1.953,-0.312 -3.701,-1.046 -5.198,-2.186 -0.868,-0.665 -1.665,-1.495 -2.367,-2.47 -0.443,-0.619 -0.791,-1.183 -1.066,-1.725 -1.481,-2.893 -2.234,-6.636 -2.242,-11.126 0.007,-3.564 0.51,-7.526 1.42,-11.155 0.181,-0.716 0.369,-1.394 0.569,-2.038 0.018,-0.06 0.063,-0.107 0.121,-0.129 0.022,-0.008 0.045,-0.012 0.069,-0.012 0.036,0 0.075,0.01 0.107,0.032 0.559,0.354 1.152,0.696 1.759,1.012 3.673,1.924 7.916,2.984 11.966,2.984 1.477,0 2.94,-0.144 4.348,-0.427 0.639,-0.127 1.285,-0.291 1.922,-0.488 0.02,-0.005 0.038,-0.01 0.059,-0.01 0.036,0 0.073,0.01 0.105,0.031 0.048,0.028 0.081,0.079 0.091,0.135 0.115,0.646 0.224,1.311 0.326,1.997 0.498,3.314 0.75,6.428 0.752,9.254 C 5.353,-6.367 4.682,-2.713 3.306,0.053 3.035,0.609 2.693,1.163 2.256,1.75 1.52,2.741 0.633,3.548 -0.38,4.149 c -1.398,0.828 -2.978,1.249 -4.775,1.249 -0.702,0 -1.45,-0.065 -2.225,-0.19" /></g><g
           transform="translate(151.1738,647.4453)"
           id="g288"><path
             id="path290"
             style="fill:#020101;fill-opacity:1;fill-rule:nonzero;stroke:none"
             d="M 0,0 C -2.62,0 -5.371,0.74 -8.18,2.199 -0.534,8.732 6.856,16.9 13.218,25.853 14.42,23.278 15.031,20.498 15.033,17.59 15.035,13.07 13.493,8.599 10.804,5.32 7.95,1.843 4.215,0.004 0,0 m 17.433,17.59 c 0.002,3.693 -0.943,7.356 -2.731,10.588 -0.346,0.626 -0.738,1.255 -1.165,1.869 -0.036,0.055 -0.099,0.087 -0.165,0.087 -0.065,0 -0.128,-0.034 -0.164,-0.089 -0.4,-0.59 -0.803,-1.178 -1.213,-1.766 -6.626,-9.507 -14.4,-18.115 -22.486,-24.895 -0.523,-0.437 -1.047,-0.867 -1.574,-1.292 -0.085,-0.069 -0.1,-0.192 -0.033,-0.279 0.067,-0.085 0.146,-0.182 0.265,-0.261 0.516,-0.339 1.031,-0.657 1.545,-0.949 C -6.814,-1.391 -3.351,-2.401 0,-2.401 10.891,-2.365 17.416,7.792 17.433,17.59" /></g><g
           transform="translate(217.3989,661.4766)"
           id="g292"><path
             id="path294"
             style="fill:#020101;fill-opacity:1;fill-rule:nonzero;stroke:none"
             d="m 0,0 c -0.008,3.875 1.805,8.197 4.853,11.563 2.661,2.949 6.042,4.887 9.294,5.327 4.11,-3.92 7.264,-9.112 10.602,-14.608 1.057,-1.74 2.15,-3.539 3.27,-5.285 4.101,-6.398 9.46,-13.306 18.14,-16.257 -2.419,-0.927 -5.066,-1.396 -7.958,-1.4 C 24.222,-20.66 8.496,-9.466 0.332,-2.759 0.114,-1.871 0.004,-0.941 0,0 m -1.82,-4.032 c 0.011,-0.039 0.033,-0.072 0.062,-0.096 1.32,-1.1 2.662,-2.172 3.987,-3.191 9.321,-7.156 23.143,-15.697 36.07,-15.742 h 0.039 c 4.239,0 8.126,0.97 11.55,2.882 0.864,0.481 1.719,1.039 2.542,1.658 0.066,0.049 0.094,0.133 0.072,0.212 -0.02,0.078 -0.088,0.138 -0.17,0.146 -1.048,0.119 -1.981,0.27 -2.855,0.464 -8.781,1.951 -14.121,7.807 -19.44,15.998 -1.157,1.783 -2.291,3.656 -3.388,5.467 -2.843,4.693 -5.782,9.547 -9.458,13.46 -0.682,0.724 -1.404,1.428 -2.143,2.087 -0.037,0.033 -0.086,0.052 -0.137,0.052 H 14.902 C 14.02,19.31 13.13,19.168 12.252,18.949 4.235,16.927 -2.34,8.427 -2.403,0.002 c -0.002,-0.309 0.01,-0.618 0.029,-0.925 0.067,-1.076 0.253,-2.123 0.554,-3.109" /></g><g
           transform="translate(329.002,584.3003)"
           id="g296"><path
             id="path298"
             style="fill:#020101;fill-opacity:1;fill-rule:nonzero;stroke:none"
             d="m 0,0 c 0.248,0 0.483,0.074 0.686,0.217 0.54,0.381 0.672,1.132 0.294,1.674 -1.411,2.01 -2.127,4.465 -2.129,7.295 -0.014,5.214 2.551,11.716 6.86,17.402 0.174,0.01 0.346,0.016 0.511,0.018 4.436,-0.022 7.56,-3.574 7.593,-8.635 0,-0.234 -0.007,-0.47 -0.016,-0.712 -0.017,-0.318 0.093,-0.624 0.307,-0.865 0.218,-0.237 0.511,-0.378 0.892,-0.394 0.642,0 1.167,0.502 1.198,1.141 0.014,0.278 0.021,0.553 0.021,0.83 0,3.102 -1.027,5.924 -2.888,7.943 -1.506,1.634 -3.531,2.691 -5.728,2.997 4,4.542 8.595,7.463 11.846,7.463 h 0.004 c 1.933,-0.037 4.286,-0.798 5.364,-6.383 0.102,-0.576 0.6,-0.991 1.181,-0.991 0.068,0 0.141,0.006 0.211,0.018 0.649,0.114 1.086,0.737 0.973,1.391 -0.853,5.237 -3.704,8.364 -7.625,8.364 H 19.454 C 14.918,38.717 9.44,35.102 4.375,28.789 3.721,27.959 3.067,27.061 2.434,26.123 -1.413,20.414 -3.537,14.398 -3.55,9.186 -3.552,5.856 -2.69,2.937 -0.984,0.511 -0.762,0.192 -0.394,0 0,0" /></g><g
           transform="translate(304.7725,185.5508)"
           id="g300"><path
             id="path302"
             style="fill:#020101;fill-opacity:1;fill-rule:nonzero;stroke:none"
             d="m 0,0 c 0.301,-0.004 0.605,-0.008 0.906,-0.008 15.413,0.006 29.533,2.597 40.855,7.492 1.437,-10.783 2.104,-24.283 2.102,-42.449 0.002,-8.355 -0.13,-16.965 -0.254,-25.293 -0.073,-4.872 -0.148,-9.711 -0.196,-14.469 -2.726,1.018 -6.408,1.539 -10.948,1.549 -5.227,-0.034 -10.385,-0.72 -14.151,-1.885 -0.836,-0.257 -1.625,-0.548 -2.343,-0.865 -0.056,-0.023 -0.099,-0.073 -0.115,-0.133 -0.208,-0.809 -0.391,-1.653 -0.542,-2.504 -0.348,-1.987 -0.527,-4.036 -0.527,-6.088 0,-0.798 0.037,-1.655 0.112,-2.683 C 13.006,-87.825 11.325,-88.563 9.9,-89.538 9.341,-82.852 7.484,-61.15 5.126,-39.664 3.583,-25.585 2.13,-14.381 0.809,-6.36 0.419,-4.009 0.03,-1.867 -0.353,0.005 Z m -110.325,107.685 c -0.181,0.235 -0.439,0.391 -0.736,0.443 -10.092,1.808 -17.544,9.596 -21.135,14.15 1.108,2.122 1.696,4.849 1.697,7.889 -0.006,1.3 -0.114,2.634 -0.32,3.973 1.859,-1.13 3.953,-2.13 6.225,-2.972 0.844,-0.313 1.67,-0.594 2.455,-0.835 5.694,-1.752 11.33,-2.36 15.128,-2.559 -1.306,-6.592 -2.415,-13.306 -3.314,-20.089 m 135.568,36.92 c 0.617,0.336 1.223,0.685 1.799,1.044 0.751,0.465 1.463,0.946 2.124,1.43 -0.064,-0.366 -0.134,-0.719 -0.207,-1.063 -0.632,-0.244 -1.263,-0.491 -1.899,-0.743 -0.627,-0.248 -1.251,-0.502 -1.871,-0.763 -0.207,-0.089 -0.418,-0.179 -0.63,-0.274 0.23,0.122 0.459,0.245 0.684,0.369 m -147.143,0.431 c 1.328,3.605 1.945,7.102 1.943,11.007 -0.002,1.526 -0.094,3.189 -0.299,5.158 1.904,6.262 6.759,11.356 11.454,16.279 l 0.472,0.495 c 1.106,-10.628 3.077,-20.23 5.857,-28.544 l 0.079,-0.245 c 0.082,-0.246 0.162,-0.492 0.244,-0.735 l -0.101,-0.372 -0.237,-0.867 c -1.474,-5.457 -2.834,-11.2 -4.046,-17.07 -5.663,0.253 -11.417,1.297 -16.239,2.943 -0.459,1.586 -0.683,3.077 -0.683,4.558 0,2.186 0.48,4.464 1.556,7.393 m 55.634,152.587 c -0.181,-0.264 -0.245,-0.585 -0.185,-0.899 0.06,-0.316 0.241,-0.59 0.506,-0.768 0.2,-0.136 0.432,-0.206 0.673,-0.206 0.4,0 0.771,0.195 0.992,0.524 1.719,2.531 2.628,5.537 2.628,8.694 0,0.48 -0.026,0.996 -0.08,1.566 5.033,0.278 9.948,0.945 14.622,1.984 l -0.364,-0.828 c -1.196,-2.727 -2.434,-5.546 -3.783,-8.274 -2.427,-4.936 -4.611,-8.379 -6.868,-10.839 -2.736,-2.965 -5.509,-4.407 -8.481,-4.409 -0.811,0 -1.65,0.108 -2.494,0.321 -5.044,1.338 -7.237,4.086 -7.327,9.179 -0.011,3.388 1.113,7.607 3.43,12.898 2.193,-0.129 4.138,-0.193 5.937,-0.193 0.981,0 1.956,0.03 2.931,0.06 0.051,-0.527 0.075,-1.009 0.075,-1.465 -0.002,-2.714 -0.747,-5.184 -2.212,-7.345 m -40.75,-97.779 c -0.006,35.968 7.979,77.458 20.846,108.323 3.518,-0.651 7.096,-1.129 10.638,-1.426 -2.206,-5.171 -3.283,-9.449 -3.297,-13.071 -0.094,-5.889 3.239,-10.083 9.14,-11.506 1.03,-0.262 2.067,-0.395 3.089,-0.395 3.645,0 7.091,1.745 10.243,5.186 4.128,4.512 7.194,11.013 10.228,17.843 l 0.538,1.22 c 0.484,1.102 0.96,2.184 1.428,3.232 3.431,0.897 6.546,1.911 9.516,3.107 8.203,3.301 17.26,8.582 26.225,15.285 -1.029,-5.221 -3.848,-21.078 -3.856,-37.625 0.003,-10.955 1.26,-19.7 3.733,-25.992 3.025,-7.794 8.162,-11.913 14.905,-11.913 1.572,0.002 3.317,0.25 5.182,0.734 4.052,-7.301 8.291,-14.021 12.6,-19.982 -3.721,-13.481 -5.609,-27.419 -5.609,-41.429 0,-14.315 1.974,-29.311 5.863,-44.58 C 12.7,140.326 -8.997,136.432 -33.7,136.432 h -0.34 -0.293 c -26.525,0 -52.077,4.561 -65.138,11.624 l -0.185,0.527 -0.043,0.125 -0.054,0.154 c -0.357,1.014 -0.695,2.051 -1.022,3.099 -2.593,8.268 -4.403,17.833 -5.38,28.428 -0.081,0.895 -0.161,1.795 -0.232,2.699 -0.418,5.379 -0.629,11.017 -0.629,16.756 m 133.559,-51.69 c -3.723,14.835 -5.61,29.395 -5.61,43.281 0,13.154 1.691,26.258 5.027,38.954 3.01,-3.994 6.14,-7.723 9.308,-11.09 -1.428,-3.056 -2.504,-6.867 -3.294,-11.646 -1.622,-9.955 -1.622,-22.446 -1.622,-32.482 v -2.619 c 0.008,-8.154 -0.041,-15.98 -0.706,-22.067 -0.071,-0.035 -0.144,-0.075 -0.213,-0.137 -0.833,-0.741 -1.806,-1.477 -2.89,-2.194 M 8.112,103.863 c 0,-0.525 0.077,-1.028 0.231,-1.502 -1.491,-0.514 -3.131,-0.777 -4.896,-0.777 -3.155,0 -6.755,0.859 -10.141,2.419 -0.635,3.587 -0.958,7.222 -0.958,10.807 0,0.8 0.019,1.646 0.062,2.571 4.196,-5.382 10.492,-9.126 16.614,-9.866 -0.574,-1.254 -0.89,-2.511 -0.912,-3.652 M 3.481,99.181 c 2.309,0 4.453,0.396 6.38,1.174 0.69,-0.432 1.554,-0.66 2.548,-0.66 1.08,0 2.292,0.245 3.708,0.749 4.02,1.467 5.509,5.203 6.705,8.205 l 0.116,0.288 c 0.59,1.504 1.177,2.931 1.862,3.824 0.643,0.818 1.259,1.294 2.513,1.312 0.712,0 1.588,-0.202 2.613,-0.604 1.389,-3.073 2.323,-6.636 2.571,-9.802 -1.72,-1.375 -3.202,-3.171 -4.638,-4.912 -0.552,-0.672 -1.107,-1.343 -1.675,-1.995 -2.57,-2.959 -4.956,-5.087 -8.25,-5.853 -0.61,-0.144 -1.275,-0.234 -1.976,-0.273 -0.059,-0.004 -0.112,-0.033 -0.148,-0.077 -0.035,-0.048 -0.048,-0.106 -0.038,-0.164 0.141,-0.685 0.326,-1.356 0.547,-1.995 0.465,-1.324 1.113,-2.533 1.924,-3.604 C 14.06,82.663 10.047,80.045 5.99,76.793 0.183,83.387 -3.998,91.796 -6.118,101.149 -2.866,99.865 0.439,99.186 3.481,99.181 m 59.258,40.467 c 0.013,-6.59 1.243,-12.764 2.436,-18.736 0.755,-3.794 1.538,-7.717 1.997,-11.695 -2.146,-4.588 -6.41,-11.831 -11.99,-18.471 -2.18,-2.617 -4.42,-4.924 -6.659,-6.86 -0.569,-0.493 -1.144,-0.969 -1.718,-1.414 -3.859,-2.987 -7.321,-4.502 -10.39,-4.502 -2.741,0.015 -5.078,1.212 -7.133,3.65 3.759,1.992 12.445,7.083 16.94,13.657 0.367,0.547 0.225,1.296 -0.322,1.668 -0.197,0.133 -0.429,0.204 -0.67,0.204 -0.399,0 -0.771,-0.195 -0.997,-0.527 C 40.76,91.475 33.414,86.461 27.696,83.487 27.078,83.167 26.477,82.868 25.891,82.59 l -0.172,-0.084 -0.136,-0.065 c -1.76,0.655 -3.172,1.486 -4.271,2.523 -0.104,0.213 -0.276,0.387 -0.465,0.481 -0.891,0.946 -1.565,1.995 -2.049,3.207 4.057,1.056 6.923,3.89 9.199,6.537 0.495,0.579 0.978,1.16 1.451,1.733 1.177,1.42 2.289,2.763 3.434,3.877 0.702,0.684 1.349,1.218 1.982,1.634 0.058,0.038 0.092,0.105 0.09,0.173 -0.023,0.741 -0.079,1.492 -0.163,2.23 -0.295,2.56 -0.945,5.223 -1.881,7.699 -0.357,0.947 -0.751,1.861 -1.175,2.718 -0.019,0.041 -0.053,0.075 -0.094,0.095 -1.034,0.471 -1.96,0.785 -2.834,0.96 -0.542,0.109 -1.053,0.168 -1.579,0.169 -1.724,0 -3.265,-0.802 -4.339,-2.261 -0.966,-1.293 -1.601,-2.909 -2.214,-4.47 -0.291,-0.74 -0.592,-1.504 -0.923,-2.223 -0.913,-2.003 -2.081,-3.972 -4.441,-4.818 -1.111,-0.395 -2.101,-0.606 -2.943,-0.606 H 12.33 c -0.667,0.017 -1.128,0.168 -1.412,0.463 -0.131,0.137 -0.234,0.331 -0.308,0.57 -0.064,0.225 -0.096,0.465 -0.096,0.738 -0.029,0.977 0.424,2.302 1.239,3.636 0.405,0.659 0.887,1.296 1.444,1.9 0.075,0.084 0.153,0.168 0.233,0.25 0.778,0.8 1.627,1.456 2.521,1.951 0.567,0.311 1.1,0.538 1.638,0.698 0.631,0.202 0.981,0.876 0.783,1.504 -0.161,0.503 -0.619,0.841 -1.142,0.841 -0.123,0 -0.246,-0.019 -0.366,-0.057 -0.024,-0.009 -0.048,-0.016 -0.071,-0.025 0.942,4.012 1.42,8.051 1.42,12.014 0,3.045 -0.282,6.154 -0.839,9.24 1.892,3.168 5.357,4.992 8.502,6.364 0.606,0.262 1.224,0.52 1.853,0.772 l 0.858,0.344 1.194,0.469 1.137,0.446 c 0.06,0.023 0.104,0.073 0.12,0.138 0.183,0.731 0.349,1.521 0.495,2.345 1.197,6.739 1.207,16.023 1.218,25.852 v 2.619 c 0,12.237 0.12,23.098 1.592,32.095 0.672,4.152 1.629,7.669 2.847,10.451 0.271,0.622 0.577,1.239 0.93,1.885 1.626,2.938 3.653,4.863 6.029,5.724 0.618,0.233 0.934,0.923 0.701,1.543 -0.173,0.467 -0.625,0.781 -1.122,0.781 -0.145,0 -0.285,-0.026 -0.422,-0.075 -2.783,-1.068 -5.027,-3.043 -6.854,-6.047 -3.273,3.527 -6.551,7.525 -9.75,11.885 -0.499,0.68 -0.988,1.368 -1.477,2.059 -3.894,5.489 -7.747,11.648 -11.454,18.303 -0.232,0.418 -0.458,0.835 -0.684,1.255 l -0.283,0.527 c -4.625,8.465 -9.09,17.68 -14.478,29.878 -0.192,0.433 -0.624,0.713 -1.1,0.713 -0.165,0 -0.329,-0.032 -0.486,-0.101 -0.603,-0.269 -0.876,-0.977 -0.611,-1.582 5.31,-12.011 9.709,-21.107 14.229,-29.439 -1.462,-0.338 -2.807,-0.512 -3.998,-0.512 -5.812,0.021 -9.838,3.324 -12.672,10.391 -2.369,5.999 -3.569,14.447 -3.567,25.112 -0.009,14.419 2.246,30.025 4.364,39.848 2.909,2.283 5.782,4.71 8.474,7.17 2.182,0.753 4.354,1.133 6.457,1.133 h 0.147 c 11.366,0 22.6,-11.55 33.39,-34.334 4.903,-10.291 9.076,-21.284 12.758,-30.98 3.006,-7.919 5.602,-14.758 7.93,-19.449 0.994,-1.999 2.033,-4.045 3.089,-6.128 4.472,-8.808 9.096,-17.914 12.195,-26.868 -0.114,-14.179 -4.697,-30.757 -9.13,-46.787 -2.477,-8.952 -4.814,-17.409 -6.232,-24.977 -0.555,-2.948 -0.824,-5.889 -0.824,-8.997 M 51.001,451.474 c -3.125,1.973 -6.74,3.017 -10.519,3.017 -8.564,-0.046 -17.429,-5.051 -22.702,-12.795 -1.076,3.23 -2.132,6.58 -3.154,9.821 -6.385,20.253 -12.984,41.191 -30.382,54.736 2.216,2.656 4.269,5.289 6.111,7.828 7.504,10.396 11.166,18.504 11.199,24.79 0.012,1.913 -0.373,3.675 -1.145,5.242 -0.289,0.589 -0.65,1.159 -1.102,1.741 -0.039,0.049 -0.097,0.077 -0.159,0.077 -0.026,0 -0.056,-0.007 -0.082,-0.017 -0.609,-0.28 -1.244,-0.56 -1.892,-0.833 -6.879,-2.927 -15.925,-5.655 -26.159,-7.891 -19.718,-4.353 -42.566,-6.849 -62.709,-6.849 -14.508,-0.002 -27.264,1.319 -36.894,3.823 -8.211,2.125 -14.262,5.111 -17.987,8.881 21.749,29.491 56.86,46.405 96.366,46.413 14.325,0 28.654,-2.235 42.591,-6.649 19.857,-6.266 36.017,-20.44 46.732,-40.995 9.255,-17.756 14.355,-40.198 14.355,-63.191 0,-9.323 -0.831,-18.454 -2.468,-27.149 m -211.231,47.362 c -2.86,-3.495 -5.266,-7.463 -7.336,-12.105 0.747,9.594 2.554,18.474 5.511,27.071 -0.011,-0.446 -0.015,-0.889 -0.017,-1.334 0,-4.749 0.619,-9.337 1.842,-13.632 m -1.98,-109.856 c 0.695,4.334 1.562,9.726 1.564,17.851 0,10.16 -1.345,22.444 -4.114,37.557 -0.981,5.351 -1.747,10.606 -2.281,15.613 -0.082,0.777 -0.151,1.556 -0.222,2.335 -0.469,5.051 -0.695,9.711 -0.695,14.25 0,0.863 0.013,1.727 0.02,2.528 2.341,6.968 5.224,12.612 8.815,17.256 0.478,0.617 0.976,1.222 1.49,1.816 0.045,0.054 0.06,0.124 0.041,0.191 -0.237,0.749 -0.456,1.513 -0.65,2.275 -0.949,3.729 -1.429,7.705 -1.429,11.816 -0.002,3.021 0.267,6.205 0.788,9.423 0.716,1.622 1.375,3.038 2.018,4.329 2.582,5.179 5.562,10.178 8.865,14.863 4.007,-3.921 10.334,-7.03 18.812,-9.242 9.957,-2.587 22.571,-3.9 37.494,-3.902 20.289,0 43.336,2.518 63.225,6.906 10.901,2.429 19.913,5.155 26.79,8.106 0.547,-1.164 0.82,-2.501 0.833,-4.08 0.043,-7.465 -6.712,-17.854 -10.742,-23.38 -1.861,-2.569 -3.955,-5.246 -6.223,-7.957 -0.433,-0.517 -0.861,-1.025 -1.285,-1.52 -0.036,-0.04 -0.051,-0.097 -0.045,-0.153 0.007,-0.055 0.037,-0.107 0.082,-0.139 l 0.101,-0.072 c 0.51,-0.363 1.02,-0.727 1.513,-1.108 16.909,-13.027 23.476,-33.795 29.829,-53.879 1.224,-3.876 2.492,-7.883 3.808,-11.745 0.306,-0.896 0.614,-1.791 0.93,-2.677 0.028,-0.077 0.102,-0.132 0.183,-0.134 h 0.005 c 0.081,0 0.154,0.048 0.186,0.123 0.354,0.833 0.769,1.661 1.234,2.466 1.294,2.253 2.96,4.336 4.951,6.191 4.818,4.51 11.089,7.202 16.801,7.202 3.751,-0.006 7.156,-1.095 10.118,-3.236 0.569,-0.411 1.134,-0.874 1.679,-1.376 0.764,-0.696 1.487,-1.465 2.154,-2.282 3.713,-4.586 5.676,-10.917 5.674,-18.31 0.056,-18.349 -11.639,-37.864 -25.54,-42.617 -0.659,-0.225 -1.381,-0.424 -2.208,-0.612 -0.071,-0.017 -0.129,-0.073 -0.148,-0.144 -0.19,-0.717 -0.39,-1.431 -0.615,-2.15 C 28.088,370.186 20.341,358.106 9.197,346.425 6.877,343.991 4.361,341.536 1.721,339.13 l -6.817,-5.859 c -0.839,-0.676 -1.678,-1.347 -2.52,-2.003 -1.155,-0.896 -2.317,-1.765 -3.481,-2.617 -8.421,-6.163 -16.875,-11.026 -24.445,-14.067 -2.459,-0.989 -5.07,-1.874 -7.753,-2.631 -0.773,-0.218 -1.554,-0.411 -2.335,-0.605 l -0.155,-0.039 c -5.294,-1.31 -10.841,-2.119 -16.491,-2.403 -0.674,-0.035 -1.348,-0.054 -2.025,-0.073 l -0.461,-0.013 c -0.766,-0.024 -1.53,-0.046 -2.384,-0.046 -1.504,0 -3.116,0.048 -5.079,0.151 l -0.538,0.026 c -0.533,0.026 -1.067,0.051 -1.603,0.092 -3.673,0.271 -7.408,0.749 -11.097,1.42 -0.447,0.084 -0.895,0.175 -1.34,0.267 l -0.661,0.134 c -4.592,0.929 -9.18,2.165 -13.63,3.675 l -0.262,0.09 c -0.555,0.188 -1.11,0.377 -1.664,0.575 -27.709,9.963 -49.251,29.894 -57.626,53.318 -1.698,4.743 -2.455,8.489 -2.455,12.147 -0.011,2.695 0.409,5.296 0.891,8.311 m 44.78,-172.885 c 0.228,0.223 0.357,0.525 0.359,0.845 0.002,0.321 -0.12,0.624 -0.346,0.852 -0.028,0.026 -0.057,0.05 -0.084,0.069 3.972,12.526 5.747,26.087 7.466,39.202 0.28,2.129 0.556,4.24 0.84,6.327 0.553,4.09 0.854,9.023 1.175,14.245 0.264,4.332 0.54,8.81 0.979,13.225 0.949,9.705 2.58,16.735 4.979,21.476 4.429,-1.509 8.969,-2.748 13.494,-3.69 -12.855,-31.071 -20.84,-72.733 -20.849,-108.802 0,-6.417 0.265,-12.711 0.783,-18.701 -0.6,-0.64 -1.213,-1.279 -1.829,-1.922 -3.817,-3.984 -7.757,-8.096 -10.327,-13.06 -0.043,0.358 -0.084,0.719 -0.124,1.091 -0.069,0.607 -0.581,1.065 -1.192,1.065 -0.045,0 -0.089,-0.002 -0.136,-0.008 -0.654,-0.074 -1.13,-0.669 -1.056,-1.326 l 0.228,-1.977 c 0.383,-3.29 0.714,-6.131 0.712,-8.963 -0.002,-3.669 -0.555,-6.809 -1.792,-10.18 -1.18,-3.2 -1.707,-5.735 -1.707,-8.22 -0.002,-1.154 0.116,-2.311 0.359,-3.523 -2.313,0.978 -4.357,2.12 -6.076,3.402 -0.491,1.692 -1.13,3.235 -1.901,4.592 4.975,2.391 8.302,6.496 9.376,11.588 0.067,0.315 0.007,0.637 -0.17,0.903 -0.174,0.27 -0.443,0.453 -0.755,0.517 -0.084,0.018 -0.17,0.026 -0.254,0.026 -0.562,0 -1.053,-0.4 -1.169,-0.951 -0.942,-4.47 -3.916,-8.04 -8.377,-10.064 -0.546,0.688 -1.116,1.276 -1.697,1.754 -0.213,0.17 -0.478,0.262 -0.751,0.262 -0.366,0 -0.707,-0.164 -0.935,-0.448 -0.2,-0.247 -0.292,-0.557 -0.26,-0.873 0.035,-0.321 0.192,-0.611 0.446,-0.813 0.344,-0.272 0.69,-0.608 1.028,-0.996 0.411,-0.476 0.814,-1.044 1.199,-1.688 0.12,-0.204 0.241,-0.411 0.355,-0.624 0.704,-1.311 1.306,-2.866 1.738,-4.495 0.536,-2.015 0.814,-4.106 0.803,-6.045 0.004,-2.259 -0.364,-4.342 -1.067,-6.023 -0.235,-0.561 -0.504,-1.072 -0.801,-1.517 -0.053,-0.079 -0.111,-0.152 -0.168,-0.228 l -0.09,-0.118 c -0.936,-1.248 -2.079,-2.04 -3.486,-2.417 -3.658,7.099 -5.773,13.198 -6.651,19.175 0.131,0.362 0.081,0.754 -0.136,1.074 -0.208,1.717 -0.309,3.312 -0.309,4.874 0,2.92 0.337,5.844 1.002,8.692 0.148,0.642 -0.254,1.289 -0.897,1.441 -0.09,0.02 -0.183,0.03 -0.273,0.03 -0.56,0 -1.04,-0.381 -1.164,-0.927 -0.708,-3.011 -1.066,-6.118 -1.066,-9.236 0,-1.723 0.116,-3.527 0.351,-5.367 -1.015,-1.31 -1.827,-2.668 -2.414,-4.045 -2.045,4.93 -3.105,11.594 -3.153,19.822 5.182,5.647 7.549,13.284 9.836,20.669 1.029,3.321 1.999,6.453 3.209,9.408 4.43,10.96 11.406,19.038 18.286,26.132 1.119,1.155 2.27,2.315 3.445,3.484 z m 0.626,-122.913 c -5.117,3.696 -10.919,7.888 -16.322,12.566 -10.428,8.979 -15.734,16.933 -15.771,23.641 0,0.002 -0.008,0.159 -0.008,0.163 0.002,0.947 0.116,1.922 0.34,2.894 0.29,1.272 0.785,2.522 1.471,3.725 1.063,-5.264 3.086,-10.783 6.174,-16.859 0.336,-0.662 0.676,-1.313 1.02,-1.961 0.034,-0.065 0.103,-0.106 0.176,-0.106 h 0.016 c 0.735,0.061 1.443,0.194 2.102,0.399 1.588,0.49 2.933,1.351 4.007,2.562 3.77,-4.647 11.536,-12.508 22.112,-14.437 0.071,-0.012 0.14,-0.019 0.211,-0.019 0.273,0 0.529,0.093 0.734,0.248 -0.683,-5.36 -1.235,-10.76 -1.655,-16.174 -1.401,1.04 -2.952,2.161 -4.607,3.358 m 74.597,-72.541 c -0.159,0.654 -0.309,1.31 -0.46,1.968 -1.663,7.293 -2.875,14.872 -4.05,22.202 -1.542,9.628 -3.137,19.589 -5.743,28.694 -0.342,1.199 -0.708,2.385 -1.091,3.559 -0.013,0.038 -0.036,0.074 -0.071,0.099 -0.878,0.65 -1.793,1.246 -2.722,1.769 -4.867,2.742 -11.14,4.321 -17.21,4.336 -0.954,0 -1.905,-0.041 -2.826,-0.121 -0.318,-0.028 -0.606,-0.178 -0.813,-0.425 -0.207,-0.246 -0.306,-0.56 -0.278,-0.878 0.056,-0.614 0.583,-1.096 1.199,-1.096 0.006,0 0.099,0.007 0.106,0.007 0.849,0.075 1.729,0.114 2.689,0.114 6.44,0 13.12,-1.963 17.882,-5.251 3.04,-9.591 4.7,-19.943 6.455,-30.902 1.199,-7.485 2.438,-15.223 4.162,-22.743 -5.763,-1.997 -13.04,-3.049 -21.109,-3.049 h -0.16 c -5.894,0 -12.198,0.594 -18.228,1.717 -0.673,0.127 -1.345,0.26 -2.014,0.398 -8.855,1.842 -16.531,4.678 -22.205,8.203 -1.392,11.401 -2.098,23.291 -2.098,35.342 0,6.834 0.234,13.904 0.697,21.017 0.052,0.797 0.106,1.596 0.164,2.394 0.974,13.467 2.786,26.877 5.382,39.861 l 0.034,0.165 c 0.12,0.608 0.243,1.216 0.37,1.824 1.059,5.123 2.266,10.253 3.585,15.25 l 0.105,0.409 0.086,0.324 c 0.549,-0.29 1.115,-0.578 1.694,-0.86 14.019,-6.816 38.18,-10.904 64.635,-10.938 18.844,0.028 36.035,2.184 48.405,6.071 0.429,0.132 0.848,0.272 1.266,0.413 l 0.211,0.068 c 2.173,0.73 4.202,1.522 6.068,2.365 -1.952,-1.065 -3.925,-2.444 -5.446,-4.303 -0.599,-0.73 -1.124,-1.542 -1.563,-2.407 -0.019,-0.038 -0.025,-0.084 -0.017,-0.129 0.207,-1.067 0.377,-2.113 0.508,-3.109 0.28,-2.133 0.421,-4.293 0.421,-6.417 0,-4.437 -0.617,-8.942 -1.838,-13.389 -1.359,-0.883 -2.594,-2.05 -3.576,-3.382 -6.528,0.269 -13.969,5.068 -17.732,11.448 -0.635,1.076 -1.154,2.192 -1.542,3.32 -0.027,0.084 -0.107,0.136 -0.191,0.136 h -0.015 c -0.09,-0.009 -0.166,-0.078 -0.181,-0.168 -0.196,-1.212 -0.353,-2.453 -0.484,-3.792 -0.204,-2.135 -0.305,-4.079 -0.305,-5.945 0.002,-14.958 5.224,-29.427 14.324,-39.693 0.444,-0.504 0.9,-0.997 1.365,-1.48 3.141,-3.269 6.673,-6.036 10.492,-8.225 0.181,-0.105 0.388,-0.161 0.597,-0.161 0.425,0 0.826,0.229 1.043,0.603 0.325,0.572 0.126,1.305 -0.446,1.639 -3.51,2.003 -6.773,4.538 -9.7,7.535 4.091,3.265 8.123,5.863 12.314,7.937 1.458,-1.285 3.246,-2.279 5.325,-2.957 l 0.37,-0.125 c 0.021,-0.006 0.041,-0.011 0.062,-0.011 0.03,0 0.058,0.007 0.086,0.02 l 0.362,0.166 c 0.305,0.139 0.62,0.29 0.938,0.443 2.565,-3.229 5.771,-4.933 9.334,-4.933 3.338,0.033 6.975,1.449 10.81,4.214 1.731,-9.501 2.172,-19.386 2.639,-29.846 0.489,-10.951 0.992,-22.274 3.11,-33.276 -2.886,-2.145 -6.094,-4.078 -9.539,-5.743 L 43.183,10.796 C 42.641,10.533 42.1,10.271 41.546,10.023 30.352,5.031 16.319,2.393 0.906,2.393 c -0.485,0 -0.968,0.006 -1.453,0.015 l -0.484,0.007 c -0.686,0.008 -1.373,0.023 -2.059,0.043 -11.491,0.327 -23.137,2.063 -33.677,5.016 -0.568,0.161 -1.127,0.323 -1.684,0.49 l -0.018,0.046 -0.058,0.15 c -1.37,3.814 -2.576,7.896 -3.68,12.481 m -0.081,-86.449 c 0.03,-4.843 0.06,-9.641 0.06,-14.374 0,-4.107 -0.023,-7.835 -0.077,-11.381 -3.174,0.846 -6.718,1.279 -10.54,1.285 -5.608,-0.006 -11.179,-0.938 -15.715,-2.629 -0.596,1.179 -1.179,2.442 -1.745,3.662 -0.327,0.708 -0.656,1.416 -0.984,2.102 -10.132,24.704 -11.253,58.285 -12.243,87.913 -0.205,6.103 -0.396,11.875 -0.661,17.381 6.004,-1.067 12.093,-1.614 18.106,-1.627 8.23,0.004 15.712,1.077 21.662,3.103 0.984,-4.009 2.051,-7.66 3.26,-11.157 0.275,-0.796 0.562,-1.586 0.856,-2.373 0.022,-0.059 0.069,-0.102 0.13,-0.121 0.279,-0.086 0.561,-0.17 0.846,-0.254 l 0.064,-0.019 -0.032,-0.226 C -39.368,5.012 -39.435,4.545 -39.5,4.08 c -2.511,-18.413 -2.848,-38.126 -2.848,-54.981 0,-4.999 0.03,-9.974 0.06,-14.907 m 0.792,-50.331 c -0.545,-0.366 -1.171,-0.674 -1.861,-0.91 -0.089,-0.03 -0.145,-0.116 -0.134,-0.209 0.067,-0.669 0.142,-1.345 0.235,-2.031 0.165,-1.209 0.363,-2.44 0.563,-3.678 0.502,-3.098 1.02,-6.303 1.012,-9.287 0,-1.657 -0.164,-3.133 -0.504,-4.515 -6.382,-4.691 -17.959,-7.963 -28.191,-7.963 h -0.155 c -2.679,0 -5.236,0.234 -7.596,0.695 -1.091,0.215 -2.145,0.486 -3.135,0.805 -0.022,0.005 -0.043,0.01 -0.065,0.01 -0.024,0 -0.047,-0.005 -0.071,-0.012 -0.983,-0.386 -1.973,-0.724 -2.941,-1.005 -4.003,-1.171 -8.438,-1.741 -13.615,-1.741 -5.515,0 -11.095,0.658 -16.49,1.297 -5.142,0.607 -9.999,1.181 -14.596,1.186 -0.202,0 -0.402,-0.007 -0.602,-0.013 l -0.198,-0.005 c -0.562,1.49 -0.844,2.922 -0.844,4.261 -0.004,3.948 2.258,7.644 6.914,11.297 6.6,5.178 17.021,9.372 26.214,13.072 l 1.16,0.47 c 6.427,2.605 12.5,5.067 16.735,7.744 0.62,0.394 1.201,0.79 1.721,1.182 0.069,0.051 0.097,0.141 0.069,0.223 -0.217,0.644 -0.43,1.313 -0.643,1.999 -1.638,5.281 -3.095,11.653 -3.721,16.271 0.291,0.256 0.626,0.499 0.994,0.723 1.556,0.94 3.723,1.5 5.819,1.5 0.075,0 0.152,0 0.228,-0.002 0.516,-0.883 1.044,-1.91 1.698,-3.297 l 0.095,-0.231 c 0.281,-0.692 0.566,-1.387 0.864,-2.065 0.067,-0.147 0.166,-0.277 0.257,-0.336 0.492,-1.076 1.026,-2.223 1.583,-3.32 0.308,-0.605 0.624,-1.197 0.953,-1.774 0.037,-0.064 0.106,-0.1 0.175,-0.1 0.028,0 0.056,0.005 0.082,0.016 0.609,0.277 1.233,0.532 1.857,0.76 4.228,1.552 9.597,2.442 14.785,2.442 h 0.103 c 3.777,0 7.42,-0.484 10.538,-1.398 0.635,-0.188 1.28,-0.406 1.971,-0.671 0.652,-0.25 1.293,-0.534 1.911,-0.84 0.406,-3.195 0.8,-6.567 0.798,-9.664 0.006,-3.953 -0.669,-6.954 -2.008,-8.919 -0.546,-0.799 -1.19,-1.441 -1.964,-1.967 m 57.768,-38.408 c -0.019,0.495 -0.037,0.989 -0.035,1.491 l 0.003,0.206 0.002,0.211 c 0.052,7.048 1.743,14.013 4.31,17.746 0.37,0.547 0.228,1.294 -0.319,1.668 -0.2,0.136 -0.432,0.207 -0.672,0.207 -0.399,0 -0.769,-0.196 -0.995,-0.525 -2.717,-4.018 -4.467,-10.727 -4.702,-17.993 -1.101,0.594 -2.233,1.4 -3.529,2.517 -0.385,2.259 -0.579,4.732 -0.579,7.353 -0.006,4.938 0.682,10.234 1.937,14.91 0.215,0.805 0.448,1.59 0.693,2.343 0.021,0.062 0.01,0.13 -0.029,0.182 -0.479,0.647 -0.948,1.336 -1.389,2.042 -3.368,5.392 -5.371,12.049 -5.361,17.81 0,3.914 0.915,7.318 2.647,9.845 0.254,0.372 0.5,0.697 0.751,0.992 0.308,0.356 0.652,0.708 1.055,1.071 1.381,1.25 3.094,2.167 5.099,2.729 0.508,-3.607 1.513,-6.97 2.989,-10 0.202,-0.415 0.616,-0.673 1.079,-0.673 0.182,0 0.357,0.041 0.525,0.12 0.29,0.14 0.508,0.388 0.61,0.693 0.104,0.301 0.084,0.624 -0.055,0.913 -1.395,2.853 -2.368,6.179 -2.819,9.619 -0.089,0.656 -0.155,1.314 -0.203,1.979 -0.068,0.943 -0.098,1.717 -0.098,2.438 0,2.354 0.25,4.682 0.742,6.926 3.667,1.307 9.227,2.151 14.211,2.151 l 0.327,-0.003 h 0.136 c 4.581,0 8.555,-0.651 10.901,-1.792 l 0.176,-0.082 c 0.101,-0.045 0.205,-0.093 0.297,-0.145 0.495,-0.277 0.979,-0.601 1.478,-0.994 3.342,-2.627 4.904,-6.945 4.917,-13.593 0,-0.135 -0.006,-0.275 -0.011,-0.413 l -0.011,-0.323 c -0.01,-0.664 -0.023,-1.331 -0.062,-2.005 -0.165,-2.991 -0.565,-6.079 -0.919,-8.803 -0.086,-0.654 0.381,-1.256 1.033,-1.345 0.054,-0.009 0.104,-0.011 0.158,-0.011 0.604,0 1.117,0.452 1.192,1.048 l 0.03,0.232 c 0.344,2.675 0.699,5.438 0.878,8.277 1.779,-0.365 3.602,-0.831 5.291,-1.359 1.089,-5.543 1.39,-11.835 1.681,-17.92 0.054,-1.162 0.109,-2.315 0.17,-3.449 -1.704,-1.491 -3.544,-2.957 -5.509,-3.69 -1.368,0.51 -3.113,1.177 -4.588,1.829 -0.15,0.066 -0.312,0.1 -0.477,0.1 -0.478,0 -0.911,-0.281 -1.102,-0.72 -0.129,-0.29 -0.136,-0.616 -0.02,-0.914 0.119,-0.3 0.345,-0.537 0.639,-0.665 0.416,-0.179 0.853,-0.36 1.298,-0.54 1.268,-0.515 2.66,-1.044 4.121,-1.591 l 1.349,-0.501 c 7.348,-2.731 15.676,-5.827 19.423,-10.072 3.318,-3.67 4.92,-9.891 4.897,-19.024 0.002,-3.662 -0.228,-7.279 -0.449,-10.778 l -0.095,-1.489 c -6.942,-2.245 -14.026,-3.335 -21.652,-3.335 -12.483,-0.004 -24.787,2.93 -36.687,5.769 l -3.415,0.809 c -0.715,2.44 -1.149,5.337 -1.259,8.385 z m 60.45,21.133 c -4.289,4.717 -12.559,7.824 -19.329,10.32 0.92,0.547 1.869,1.234 2.893,2.088 0.667,0.555 1.297,1.123 1.904,1.672 0.045,0.041 0.069,0.099 0.067,0.159 -0.047,0.837 -0.093,1.685 -0.136,2.543 l -0.093,1.922 c -0.27,5.774 -0.553,11.747 -1.536,17.269 -0.139,0.779 -0.295,1.543 -0.463,2.296 -0.014,0.069 -0.064,0.123 -0.131,0.146 -0.711,0.243 -1.459,0.478 -2.222,0.699 -1.653,0.485 -3.31,0.889 -4.93,1.205 l 0.008,0.256 c 0.011,0.22 0.019,0.438 0.019,0.654 0.016,7.962 -2.265,13.29 -6.973,16.277 0.047,5.179 0.127,10.469 0.209,15.799 0.127,8.271 0.256,16.827 0.258,25.144 -0.002,18.908 -0.689,32.329 -2.228,43.483 3.486,1.656 6.755,3.578 9.718,5.716 0.597,0.429 1.185,0.87 1.764,1.325 0.061,0.046 0.089,0.122 0.074,0.197 -0.153,0.738 -0.297,1.48 -0.435,2.223 -1.92,10.419 -2.408,21.282 -2.879,31.785 -0.475,10.567 -0.967,21.495 -2.944,31.66 2.473,2.057 5.058,4.674 7.684,7.779 4.011,4.781 7.966,10.639 10.852,16.067 0.656,1.238 1.235,2.413 1.724,3.493 0.015,0.032 0.019,0.067 0.015,0.103 -0.11,1.033 -0.23,2.062 -0.377,3.075 -0.473,3.294 -1.119,6.525 -1.741,9.647 -1.216,6.09 -2.364,11.844 -2.353,18.06 0,2.949 0.254,5.747 0.778,8.556 1.38,7.417 3.701,15.792 6.159,24.66 3.891,14.043 7.914,28.564 8.986,41.83 0.167,2.072 0.258,4.095 0.258,6.081 -0.686,2.014 -1.467,4.097 -2.317,6.193 -2.938,7.219 -6.54,14.312 -10.022,21.17 -1.094,2.158 -2.169,4.273 -3.193,6.333 -2.246,4.514 -4.811,11.273 -7.781,19.097 -3.709,9.778 -7.916,20.862 -12.887,31.299 -7.314,15.265 -18.973,35.576 -35.708,35.703 -0.934,0 -1.897,-0.071 -2.877,-0.207 1.539,1.481 3.015,2.959 4.395,4.408 11.792,12.383 19.836,25.148 23.271,36.914 16.873,4.941 28.254,27.331 28.306,45.2 0,7.944 -2.148,14.798 -6.213,19.818 -0.957,1.184 -2.018,2.264 -3.156,3.213 1.811,9.171 2.728,18.831 2.728,28.707 0.002,23.382 -5.194,46.224 -14.631,64.317 -10.993,21.075 -27.635,35.654 -48.13,42.159 -14.165,4.484 -28.739,6.759 -43.34,6.761 -40.129,0 -75.891,-17.191 -98.111,-47.164 -0.408,-0.553 -0.818,-1.109 -1.22,-1.672 -2.797,-3.917 -5.379,-8.066 -7.675,-12.33 -0.605,-1.121 -1.203,-2.253 -1.776,-3.405 -0.686,-1.376 -1.375,-2.857 -2.167,-4.661 -5.818,-13.263 -8.809,-27.364 -9.143,-43.107 -0.021,-0.979 -0.034,-1.956 -0.034,-2.935 0,-1.126 0.021,-2.251 0.047,-3.377 0.213,-9.117 1.257,-18.686 3.193,-29.256 2.742,-14.979 4.074,-27.122 4.072,-37.122 0.004,-7.858 -0.803,-12.891 -1.513,-17.333 -0.502,-3.128 -0.934,-5.829 -0.942,-8.829 -0.003,-3.944 0.8,-7.94 2.601,-12.956 8.614,-23.967 30.498,-44.362 58.554,-54.588 -3.189,-6.466 -4.39,-15.157 -5.083,-22.028 -0.445,-4.489 -0.723,-9.008 -0.99,-13.378 -0.316,-5.171 -0.615,-10.054 -1.153,-14.009 -0.273,-2.02 -0.54,-4.06 -0.809,-6.113 -1.823,-13.916 -3.706,-28.305 -8.072,-41.12 -9.814,-9.771 -17.303,-18.627 -21.946,-30.104 -1.227,-3.068 -2.26,-6.358 -3.256,-9.543 -2.021,-6.445 -4.108,-13.111 -7.897,-18.112 -0.601,-0.792 -1.277,-1.571 -2.012,-2.316 -0.037,-0.036 -0.06,-0.182 -0.06,-0.234 0.001,-0.867 0.017,-1.738 0.038,-2.61 0.231,-9.257 1.704,-16.266 4.502,-21.428 -0.149,-0.863 -0.222,-1.731 -0.22,-2.58 0.063,-10.063 9.509,-19.44 16.608,-25.618 5.524,-4.777 11.644,-9.199 16.563,-12.751 2.092,-1.511 4.071,-2.94 5.719,-4.191 -0.514,-7.46 -0.776,-14.998 -0.776,-22.406 0,-11.593 0.643,-23.031 1.915,-34 0.103,-0.884 0.213,-1.762 0.325,-2.642 0.006,-0.058 0.038,-0.108 0.088,-0.14 0.701,-0.469 1.44,-0.925 2.188,-1.36 5.858,-3.389 13.484,-6.096 22.063,-7.833 0.282,-5.687 0.48,-11.686 0.689,-18.032 0.902,-27.385 1.928,-58.41 10.297,-82.953 -2.499,-0.037 -4.922,-0.689 -6.848,-1.838 -0.071,-0.041 -0.137,-0.086 -0.204,-0.134 l -0.125,-0.082 c -0.744,-0.486 -1.379,-1.049 -1.887,-1.673 -0.035,-0.043 -0.05,-0.097 -0.043,-0.149 0.23,-2.051 0.624,-4.407 1.164,-7.006 0.785,-3.785 1.818,-7.761 2.914,-11.212 -4.212,-2.704 -10.949,-5.426 -18.076,-8.307 -3.068,-1.24 -6.243,-2.523 -9.339,-3.855 -7.923,-3.429 -13.221,-6.339 -17.176,-9.435 -5.27,-4.119 -7.833,-8.431 -7.839,-13.187 0.002,-1.502 0.275,-3.057 0.809,-4.62 0.2,-0.587 0.467,-1.23 0.818,-1.969 0.032,-0.071 0.103,-0.114 0.181,-0.114 h 0.01 c 0.719,0.037 1.449,0.061 2.275,0.061 4.357,0 9.104,-0.562 14.129,-1.156 5.51,-0.652 11.209,-1.326 16.965,-1.33 6.365,0 11.809,0.861 16.642,2.63 3.133,-0.915 6.766,-1.378 10.798,-1.38 9.686,0.013 20.133,2.632 27.264,6.837 1.136,0.669 2.167,1.364 3.069,2.067 0,0 0.094,0.072 0.096,0.072 0.433,0.342 0.562,0.935 0.323,1.441 0.284,1.38 0.428,2.879 0.426,4.461 -0.009,3.277 -0.549,6.61 -1.069,9.834 -0.214,1.315 -0.422,2.6 -0.588,3.839 1.41,0.768 2.55,1.797 3.394,3.062 1.642,2.447 2.41,5.708 2.418,10.266 0,2.901 -0.322,5.94 -0.639,8.528 -0.105,0.87 -0.213,1.724 -0.322,2.563 -0.009,0.062 -0.046,0.116 -0.1,0.148 -0.69,0.397 -1.422,0.762 -2.171,1.087 -0.508,0.222 -1.026,0.431 -1.558,0.624 0.058,3.667 0.086,7.635 0.086,12.121 0,4.746 -0.03,9.555 -0.06,14.401 -0.03,4.927 -0.06,9.893 -0.06,14.88 0,16.147 0.307,35.055 2.591,52.868 0.099,0.772 0.204,1.541 0.312,2.309 l 0.108,0.757 C -26.233,2.077 -14.439,0.354 -2.808,0.046 1.986,-22.828 7.333,-87.616 7.651,-91.491 l -0.124,-0.127 c -0.119,-0.119 -0.237,-0.237 -0.348,-0.366 -2.598,-3.056 -3.971,-7.342 -3.971,-12.395 0.011,-6.805 2.464,-14.406 6.563,-20.36 -1.551,-5.153 -2.41,-11.158 -2.416,-16.927 0,-1.779 0.099,-3.589 0.292,-5.378 0.129,-1.2 0.28,-2.233 0.458,-3.158 0.009,-0.043 0.031,-0.082 0.063,-0.11 0.964,-0.865 1.78,-1.53 2.563,-2.089 1.061,-0.765 2.087,-1.352 3.135,-1.793 0.077,-3.122 0.447,-6.008 1.104,-8.571 0.192,-0.749 0.418,-1.498 0.673,-2.222 0.024,-0.066 0.079,-0.113 0.145,-0.127 l 1.889,-0.448 0.45,-0.106 2.38,-0.567 c 11.964,-2.859 24.333,-5.811 37.13,-5.813 h 0.019 c 7.685,0 14.801,1.059 21.76,3.238 0.68,0.216 1.361,0.437 2.044,0.674 0.075,0.029 0.129,0.097 0.134,0.179 0.04,0.703 0.086,1.431 0.133,2.175 l 0.051,0.805 c 0.213,3.366 0.456,7.181 0.458,10.933 -0.012,6.73 -0.651,15.156 -5.514,20.63" /></g></g></g></g></svg>